<mxfile host="app.diagrams.net" agent="Mozilla/5.0 (Windows NT 10.0; Win64; x64) AppleWebKit/537.36 (KHTML, like Gecko) Chrome/140.0.0.0 Safari/537.36" version="28.2.4">
  <diagram name="Trang-1" id="ugJwHyT9oZUD6u55Usbw">
    <mxGraphModel grid="1" page="1" gridSize="10" guides="1" tooltips="1" connect="1" arrows="1" fold="1" pageScale="1" pageWidth="2339" pageHeight="3300" math="0" shadow="0">
      <root>
        <mxCell id="0" />
        <mxCell id="1" parent="0" />
        <mxCell id="bdeqUx--kDpb1p-4bheV-119" value="" style="rounded=0;whiteSpace=wrap;html=1;dashed=1;" vertex="1" parent="1">
          <mxGeometry x="50" y="2730" width="780" height="630" as="geometry" />
        </mxCell>
        <mxCell id="bdeqUx--kDpb1p-4bheV-116" value="" style="rounded=0;whiteSpace=wrap;html=1;dashed=1;" vertex="1" parent="1">
          <mxGeometry x="55" y="1790" width="1140" height="800" as="geometry" />
        </mxCell>
        <mxCell id="bdeqUx--kDpb1p-4bheV-113" value="" style="rounded=0;whiteSpace=wrap;html=1;dashed=1;" vertex="1" parent="1">
          <mxGeometry x="55" y="850" width="2075" height="820" as="geometry" />
        </mxCell>
        <mxCell id="bdeqUx--kDpb1p-4bheV-17" value="BoDieuKhienTimKiem" style="swimlane;whiteSpace=wrap;html=1;" vertex="1" parent="1">
          <mxGeometry x="1155" y="910" width="480" height="100" as="geometry" />
        </mxCell>
        <mxCell id="bdeqUx--kDpb1p-4bheV-20" value="&lt;div&gt;+timKiem(tuKhoa: String, boLoc: List&amp;lt;BoLoc&amp;gt;, sapXep: TieuChiSapXep): List&amp;lt;Sach&amp;gt;&lt;/div&gt;" style="text;html=1;align=center;verticalAlign=middle;resizable=0;points=[];autosize=1;strokeColor=none;fillColor=none;" vertex="1" parent="bdeqUx--kDpb1p-4bheV-17">
          <mxGeometry y="50" width="470" height="30" as="geometry" />
        </mxCell>
        <mxCell id="bdeqUx--kDpb1p-4bheV-21" value="" style="endArrow=none;html=1;rounded=0;" edge="1" parent="bdeqUx--kDpb1p-4bheV-17">
          <mxGeometry width="50" height="50" relative="1" as="geometry">
            <mxPoint y="50" as="sourcePoint" />
            <mxPoint x="480" y="50" as="targetPoint" />
          </mxGeometry>
        </mxCell>
        <mxCell id="bdeqUx--kDpb1p-4bheV-22" value="&lt;div&gt;DichVuTimKiem&amp;nbsp;&lt;/div&gt;" style="swimlane;whiteSpace=wrap;html=1;startSize=20;" vertex="1" parent="1">
          <mxGeometry x="775" y="1110" width="510" height="70" as="geometry" />
        </mxCell>
        <mxCell id="bdeqUx--kDpb1p-4bheV-23" value="&lt;span style=&quot;text-wrap-mode: wrap;&quot;&gt;&lt;br&gt;&lt;/span&gt;" style="text;html=1;align=left;verticalAlign=middle;resizable=0;points=[];autosize=1;strokeColor=none;fillColor=none;" vertex="1" parent="bdeqUx--kDpb1p-4bheV-22">
          <mxGeometry y="95" width="20" height="30" as="geometry" />
        </mxCell>
        <mxCell id="bdeqUx--kDpb1p-4bheV-24" value="" style="endArrow=none;html=1;rounded=0;" edge="1" parent="bdeqUx--kDpb1p-4bheV-22">
          <mxGeometry width="50" height="50" relative="1" as="geometry">
            <mxPoint y="40" as="sourcePoint" />
            <mxPoint x="510" y="40" as="targetPoint" />
          </mxGeometry>
        </mxCell>
        <mxCell id="bdeqUx--kDpb1p-4bheV-26" value="&amp;nbsp; +thucHienTimKiem(tuKhoa: String, boLoc: List&amp;lt;BoLoc&amp;gt;, sapXep: TieuChiSapXep): List&amp;lt;Sach&amp;gt;" style="text;strokeColor=none;fillColor=none;align=left;verticalAlign=middle;spacingLeft=4;spacingRight=4;overflow=hidden;points=[[0,0.5],[1,0.5]];portConstraint=eastwest;rotatable=0;whiteSpace=wrap;html=1;" vertex="1" parent="bdeqUx--kDpb1p-4bheV-22">
          <mxGeometry x="-10" y="40" width="530" height="30" as="geometry" />
        </mxCell>
        <mxCell id="bdeqUx--kDpb1p-4bheV-27" value="&lt;div&gt;KhoSach&lt;/div&gt;" style="swimlane;whiteSpace=wrap;html=1;startSize=20;" vertex="1" parent="1">
          <mxGeometry x="1375" y="1260" width="440" height="70" as="geometry" />
        </mxCell>
        <mxCell id="bdeqUx--kDpb1p-4bheV-28" value="&lt;span style=&quot;text-wrap-mode: wrap;&quot;&gt;&lt;br&gt;&lt;/span&gt;" style="text;html=1;align=left;verticalAlign=middle;resizable=0;points=[];autosize=1;strokeColor=none;fillColor=none;" vertex="1" parent="bdeqUx--kDpb1p-4bheV-27">
          <mxGeometry y="95" width="20" height="30" as="geometry" />
        </mxCell>
        <mxCell id="bdeqUx--kDpb1p-4bheV-29" value="" style="endArrow=none;html=1;rounded=0;entryX=0.958;entryY=-0.014;entryDx=0;entryDy=0;entryPerimeter=0;" edge="1" parent="bdeqUx--kDpb1p-4bheV-27" target="bdeqUx--kDpb1p-4bheV-31">
          <mxGeometry width="50" height="50" relative="1" as="geometry">
            <mxPoint y="40" as="sourcePoint" />
            <mxPoint x="510" y="40" as="targetPoint" />
          </mxGeometry>
        </mxCell>
        <mxCell id="bdeqUx--kDpb1p-4bheV-31" value="&lt;span style=&quot;text-align: center;&quot;&gt;+tim(tuKhoa: String, boLoc: List&amp;lt;BoLoc&amp;gt;, sapXep: TieuChiSapXep): List&amp;lt;Sach&amp;gt;&lt;/span&gt;" style="text;strokeColor=none;fillColor=none;align=left;verticalAlign=middle;spacingLeft=4;spacingRight=4;overflow=hidden;points=[[0,0.5],[1,0.5]];portConstraint=eastwest;rotatable=0;whiteSpace=wrap;html=1;" vertex="1" parent="bdeqUx--kDpb1p-4bheV-27">
          <mxGeometry y="40" width="460" height="30" as="geometry" />
        </mxCell>
        <mxCell id="bdeqUx--kDpb1p-4bheV-33" value="&lt;div&gt;ThuatToanTimKiem&lt;/div&gt;" style="swimlane;whiteSpace=wrap;html=1;startSize=20;" vertex="1" parent="1">
          <mxGeometry x="345" y="1360" width="390" height="70" as="geometry" />
        </mxCell>
        <mxCell id="bdeqUx--kDpb1p-4bheV-34" value="&lt;span style=&quot;text-wrap-mode: wrap;&quot;&gt;&lt;br&gt;&lt;/span&gt;" style="text;html=1;align=left;verticalAlign=middle;resizable=0;points=[];autosize=1;strokeColor=none;fillColor=none;" vertex="1" parent="bdeqUx--kDpb1p-4bheV-33">
          <mxGeometry y="95" width="20" height="30" as="geometry" />
        </mxCell>
        <mxCell id="bdeqUx--kDpb1p-4bheV-35" value="" style="endArrow=none;html=1;rounded=0;entryX=0.901;entryY=0.025;entryDx=0;entryDy=0;entryPerimeter=0;" edge="1" parent="bdeqUx--kDpb1p-4bheV-33" target="bdeqUx--kDpb1p-4bheV-37">
          <mxGeometry width="50" height="50" relative="1" as="geometry">
            <mxPoint y="40" as="sourcePoint" />
            <mxPoint x="510" y="40" as="targetPoint" />
          </mxGeometry>
        </mxCell>
        <mxCell id="bdeqUx--kDpb1p-4bheV-37" value="&lt;span style=&quot;text-align: center;&quot;&gt;+apDungDoLienQuan(tuKhoa: String, dsSach: List&amp;lt;Sach&amp;gt;): List&amp;lt;Sach&amp;gt;&lt;/span&gt;" style="text;strokeColor=none;fillColor=none;align=left;verticalAlign=middle;spacingLeft=4;spacingRight=4;overflow=hidden;points=[[0,0.5],[1,0.5]];portConstraint=eastwest;rotatable=0;whiteSpace=wrap;html=1;" vertex="1" parent="bdeqUx--kDpb1p-4bheV-33">
          <mxGeometry y="40" width="430" height="30" as="geometry" />
        </mxCell>
        <mxCell id="bdeqUx--kDpb1p-4bheV-38" value="&lt;div&gt;ThuatToanTimKiemToanVan&lt;/div&gt;" style="swimlane;whiteSpace=wrap;html=1;startSize=20;" vertex="1" parent="1">
          <mxGeometry x="515" y="1570" width="390" height="70" as="geometry" />
        </mxCell>
        <mxCell id="bdeqUx--kDpb1p-4bheV-39" value="&lt;span style=&quot;text-wrap-mode: wrap;&quot;&gt;&lt;br&gt;&lt;/span&gt;" style="text;html=1;align=left;verticalAlign=middle;resizable=0;points=[];autosize=1;strokeColor=none;fillColor=none;" vertex="1" parent="bdeqUx--kDpb1p-4bheV-38">
          <mxGeometry x="-340" y="-55" width="20" height="30" as="geometry" />
        </mxCell>
        <mxCell id="bdeqUx--kDpb1p-4bheV-40" value="" style="endArrow=none;html=1;rounded=0;entryX=0.901;entryY=0.025;entryDx=0;entryDy=0;entryPerimeter=0;" edge="1" parent="bdeqUx--kDpb1p-4bheV-38">
          <mxGeometry width="50" height="50" relative="1" as="geometry">
            <mxPoint y="40" as="sourcePoint" />
            <mxPoint x="387.4300000000003" y="40.75" as="targetPoint" />
          </mxGeometry>
        </mxCell>
        <mxCell id="bdeqUx--kDpb1p-4bheV-42" value="&lt;span style=&quot;text-align: center;&quot;&gt;+apDungDoLienQuan(tuKhoa: String, dsSach: List&amp;lt;Sach&amp;gt;): List&amp;lt;Sach&amp;gt;&lt;/span&gt;" style="text;strokeColor=none;fillColor=none;align=left;verticalAlign=middle;spacingLeft=4;spacingRight=4;overflow=hidden;points=[[0,0.5],[1,0.5]];portConstraint=eastwest;rotatable=0;whiteSpace=wrap;html=1;" vertex="1" parent="bdeqUx--kDpb1p-4bheV-38">
          <mxGeometry y="40" width="410" height="30" as="geometry" />
        </mxCell>
        <mxCell id="bdeqUx--kDpb1p-4bheV-43" value="&lt;div&gt;ThuatToanTimKiemChinhXac&lt;/div&gt;" style="swimlane;whiteSpace=wrap;html=1;startSize=20;" vertex="1" parent="1">
          <mxGeometry x="85" y="1570" width="390" height="70" as="geometry" />
        </mxCell>
        <mxCell id="bdeqUx--kDpb1p-4bheV-44" value="&lt;span style=&quot;text-wrap-mode: wrap;&quot;&gt;&lt;br&gt;&lt;/span&gt;" style="text;html=1;align=left;verticalAlign=middle;resizable=0;points=[];autosize=1;strokeColor=none;fillColor=none;" vertex="1" parent="bdeqUx--kDpb1p-4bheV-43">
          <mxGeometry y="95" width="20" height="30" as="geometry" />
        </mxCell>
        <mxCell id="bdeqUx--kDpb1p-4bheV-45" value="" style="endArrow=none;html=1;rounded=0;entryX=0.951;entryY=-0.028;entryDx=0;entryDy=0;entryPerimeter=0;" edge="1" parent="bdeqUx--kDpb1p-4bheV-43" target="bdeqUx--kDpb1p-4bheV-47">
          <mxGeometry width="50" height="50" relative="1" as="geometry">
            <mxPoint y="40" as="sourcePoint" />
            <mxPoint x="510" y="40" as="targetPoint" />
          </mxGeometry>
        </mxCell>
        <mxCell id="bdeqUx--kDpb1p-4bheV-47" value="&lt;span style=&quot;text-align: center;&quot;&gt;+apDungDoLienQuan(tuKhoa: String, dsSach: List&amp;lt;Sach&amp;gt;): List&amp;lt;Sach&amp;gt;&lt;/span&gt;" style="text;strokeColor=none;fillColor=none;align=left;verticalAlign=middle;spacingLeft=4;spacingRight=4;overflow=hidden;points=[[0,0.5],[1,0.5]];portConstraint=eastwest;rotatable=0;whiteSpace=wrap;html=1;" vertex="1" parent="bdeqUx--kDpb1p-4bheV-43">
          <mxGeometry y="40" width="410" height="30" as="geometry" />
        </mxCell>
        <mxCell id="bdeqUx--kDpb1p-4bheV-48" value="Sach" style="swimlane;whiteSpace=wrap;html=1;startSize=20;" vertex="1" parent="1">
          <mxGeometry x="1865" y="1470" width="120" height="140" as="geometry">
            <mxRectangle x="1810" y="1420" width="70" height="30" as="alternateBounds" />
          </mxGeometry>
        </mxCell>
        <mxCell id="bdeqUx--kDpb1p-4bheV-49" value="&lt;span style=&quot;text-wrap-mode: wrap;&quot;&gt;&lt;br&gt;&lt;/span&gt;" style="text;html=1;align=left;verticalAlign=middle;resizable=0;points=[];autosize=1;strokeColor=none;fillColor=none;" vertex="1" parent="bdeqUx--kDpb1p-4bheV-48">
          <mxGeometry y="95" width="20" height="30" as="geometry" />
        </mxCell>
        <mxCell id="bdeqUx--kDpb1p-4bheV-50" value="" style="endArrow=none;html=1;rounded=0;" edge="1" parent="bdeqUx--kDpb1p-4bheV-48">
          <mxGeometry width="50" height="50" relative="1" as="geometry">
            <mxPoint y="120" as="sourcePoint" />
            <mxPoint x="120" y="120" as="targetPoint" />
          </mxGeometry>
        </mxCell>
        <mxCell id="bdeqUx--kDpb1p-4bheV-52" value="&lt;div style=&quot;&quot;&gt;&amp;nbsp;&lt;/div&gt;&lt;div style=&quot;&quot;&gt;&amp;nbsp; -maSach: int&lt;/div&gt;&lt;div style=&quot;&quot;&gt;&amp;nbsp; -tieuDe: String&lt;/div&gt;&lt;div style=&quot;&quot;&gt;&amp;nbsp; -tacGia: String&lt;/div&gt;&lt;div style=&quot;&quot;&gt;&amp;nbsp; -theLoai: String&lt;/div&gt;&lt;div style=&quot;&quot;&gt;&amp;nbsp; -namXuatBan: int&lt;/div&gt;&lt;div style=&quot;&quot;&gt;&amp;nbsp; -trangThai: String&amp;nbsp;&lt;/div&gt;" style="text;strokeColor=none;fillColor=none;align=left;verticalAlign=middle;spacingLeft=4;spacingRight=4;overflow=hidden;points=[[0,0.5],[1,0.5]];portConstraint=eastwest;rotatable=0;whiteSpace=wrap;html=1;" vertex="1" parent="bdeqUx--kDpb1p-4bheV-48">
          <mxGeometry x="-10" y="10" width="120" height="110" as="geometry" />
        </mxCell>
        <mxCell id="bdeqUx--kDpb1p-4bheV-53" value="&lt;span style=&quot;text-align: left;&quot;&gt;BoLoc&lt;/span&gt;" style="swimlane;whiteSpace=wrap;html=1;startSize=20;" vertex="1" parent="1">
          <mxGeometry x="945" y="1310" width="90" height="80" as="geometry" />
        </mxCell>
        <mxCell id="bdeqUx--kDpb1p-4bheV-54" value="&lt;span style=&quot;text-wrap-mode: wrap;&quot;&gt;&lt;br&gt;&lt;/span&gt;" style="text;html=1;align=left;verticalAlign=middle;resizable=0;points=[];autosize=1;strokeColor=none;fillColor=none;" vertex="1" parent="bdeqUx--kDpb1p-4bheV-53">
          <mxGeometry y="130" width="20" height="30" as="geometry" />
        </mxCell>
        <mxCell id="bdeqUx--kDpb1p-4bheV-55" value="" style="endArrow=none;html=1;rounded=0;" edge="1" parent="bdeqUx--kDpb1p-4bheV-53">
          <mxGeometry width="50" height="50" relative="1" as="geometry">
            <mxPoint y="60" as="sourcePoint" />
            <mxPoint x="90" y="60" as="targetPoint" />
          </mxGeometry>
        </mxCell>
        <mxCell id="bdeqUx--kDpb1p-4bheV-56" value="&lt;div style=&quot;&quot;&gt;&lt;div&gt;&lt;br&gt;&lt;/div&gt;&lt;div&gt;&amp;nbsp; -truong: String&lt;/div&gt;&lt;div&gt;&amp;nbsp; -giaTri: String&lt;/div&gt;&lt;/div&gt;" style="text;strokeColor=none;fillColor=none;align=left;verticalAlign=middle;spacingLeft=4;spacingRight=4;overflow=hidden;points=[[0,0.5],[1,0.5]];portConstraint=eastwest;rotatable=0;whiteSpace=wrap;html=1;" vertex="1" parent="bdeqUx--kDpb1p-4bheV-53">
          <mxGeometry x="-10" y="-10" width="110" height="70" as="geometry" />
        </mxCell>
        <mxCell id="bdeqUx--kDpb1p-4bheV-57" value="&lt;div style=&quot;text-align: left;&quot;&gt;BoLocTheoGia&lt;/div&gt;" style="swimlane;whiteSpace=wrap;html=1;startSize=20;" vertex="1" collapsed="1" parent="1">
          <mxGeometry x="845" y="1485" width="120" height="30" as="geometry">
            <mxRectangle x="1130" y="1530" width="90" height="80" as="alternateBounds" />
          </mxGeometry>
        </mxCell>
        <mxCell id="bdeqUx--kDpb1p-4bheV-58" value="&lt;span style=&quot;text-wrap-mode: wrap;&quot;&gt;&lt;br&gt;&lt;/span&gt;" style="text;html=1;align=left;verticalAlign=middle;resizable=0;points=[];autosize=1;strokeColor=none;fillColor=none;" vertex="1" parent="bdeqUx--kDpb1p-4bheV-57">
          <mxGeometry y="95" width="20" height="30" as="geometry" />
        </mxCell>
        <mxCell id="bdeqUx--kDpb1p-4bheV-59" value="" style="endArrow=none;html=1;rounded=0;" edge="1" parent="bdeqUx--kDpb1p-4bheV-57">
          <mxGeometry width="50" height="50" relative="1" as="geometry">
            <mxPoint y="60" as="sourcePoint" />
            <mxPoint x="90" y="60" as="targetPoint" />
          </mxGeometry>
        </mxCell>
        <mxCell id="bdeqUx--kDpb1p-4bheV-61" value="&lt;div style=&quot;text-align: left;&quot;&gt;BoLocTheoNam&lt;/div&gt;" style="swimlane;whiteSpace=wrap;html=1;startSize=20;" vertex="1" collapsed="1" parent="1">
          <mxGeometry x="985" y="1485" width="130" height="30" as="geometry">
            <mxRectangle x="1270" y="1530" width="90" height="80" as="alternateBounds" />
          </mxGeometry>
        </mxCell>
        <mxCell id="bdeqUx--kDpb1p-4bheV-62" value="&lt;span style=&quot;text-wrap-mode: wrap;&quot;&gt;&lt;br&gt;&lt;/span&gt;" style="text;html=1;align=left;verticalAlign=middle;resizable=0;points=[];autosize=1;strokeColor=none;fillColor=none;" vertex="1" parent="bdeqUx--kDpb1p-4bheV-61">
          <mxGeometry y="95" width="20" height="30" as="geometry" />
        </mxCell>
        <mxCell id="bdeqUx--kDpb1p-4bheV-63" value="" style="endArrow=none;html=1;rounded=0;" edge="1" parent="bdeqUx--kDpb1p-4bheV-61">
          <mxGeometry width="50" height="50" relative="1" as="geometry">
            <mxPoint y="60" as="sourcePoint" />
            <mxPoint x="90" y="60" as="targetPoint" />
          </mxGeometry>
        </mxCell>
        <mxCell id="bdeqUx--kDpb1p-4bheV-64" value="&lt;div style=&quot;text-align: left;&quot;&gt;BoLocTheoTacGia&lt;/div&gt;" style="swimlane;whiteSpace=wrap;html=1;startSize=20;" vertex="1" collapsed="1" parent="1">
          <mxGeometry x="1144" y="1485" width="140" height="30" as="geometry">
            <mxRectangle x="1590" y="1580" width="90" height="80" as="alternateBounds" />
          </mxGeometry>
        </mxCell>
        <mxCell id="bdeqUx--kDpb1p-4bheV-65" value="&lt;span style=&quot;text-wrap-mode: wrap;&quot;&gt;&lt;br&gt;&lt;/span&gt;" style="text;html=1;align=left;verticalAlign=middle;resizable=0;points=[];autosize=1;strokeColor=none;fillColor=none;" vertex="1" parent="bdeqUx--kDpb1p-4bheV-64">
          <mxGeometry y="95" width="20" height="30" as="geometry" />
        </mxCell>
        <mxCell id="bdeqUx--kDpb1p-4bheV-66" value="" style="endArrow=none;html=1;rounded=0;" edge="1" parent="bdeqUx--kDpb1p-4bheV-64">
          <mxGeometry width="50" height="50" relative="1" as="geometry">
            <mxPoint y="60" as="sourcePoint" />
            <mxPoint x="90" y="60" as="targetPoint" />
          </mxGeometry>
        </mxCell>
        <mxCell id="bdeqUx--kDpb1p-4bheV-76" value="TieuChiSapXep" style="swimlane;whiteSpace=wrap;html=1;" vertex="1" parent="1">
          <mxGeometry x="1115" y="1300" width="160" height="90" as="geometry">
            <mxRectangle x="2000" y="1140" width="120" height="30" as="alternateBounds" />
          </mxGeometry>
        </mxCell>
        <mxCell id="bdeqUx--kDpb1p-4bheV-74" value="&lt;div style=&quot;&quot;&gt;&lt;div style=&quot;&quot;&gt;&lt;br&gt;&lt;/div&gt;&lt;div style=&quot;&quot;&gt;&amp;nbsp; -truong: String&lt;/div&gt;&lt;div style=&quot;&quot;&gt;&amp;nbsp; -thuTu: String&lt;/div&gt;&lt;/div&gt;" style="text;strokeColor=none;fillColor=none;align=left;verticalAlign=middle;spacingLeft=4;spacingRight=4;overflow=hidden;points=[[0,0.5],[1,0.5]];portConstraint=eastwest;rotatable=0;whiteSpace=wrap;html=1;" vertex="1" parent="bdeqUx--kDpb1p-4bheV-76">
          <mxGeometry x="-10" y="-10" width="170" height="100" as="geometry" />
        </mxCell>
        <mxCell id="bdeqUx--kDpb1p-4bheV-77" value="&lt;div&gt;KetQuaTimKiem&lt;/div&gt;" style="swimlane;whiteSpace=wrap;html=1;" vertex="1" parent="1">
          <mxGeometry x="1945" y="1250" width="140" height="70" as="geometry" />
        </mxCell>
        <mxCell id="bdeqUx--kDpb1p-4bheV-78" value="&lt;div style=&quot;&quot;&gt;&lt;span style=&quot;background-color: transparent; color: light-dark(rgb(0, 0, 0), rgb(255, 255, 255));&quot;&gt;-dsSach: List&amp;lt;Sach&amp;gt;&lt;/span&gt;&lt;/div&gt;&lt;div style=&quot;&quot;&gt;-tongSo: int&lt;/div&gt;" style="text;strokeColor=none;fillColor=none;align=left;verticalAlign=middle;spacingLeft=4;spacingRight=4;overflow=hidden;points=[[0,0.5],[1,0.5]];portConstraint=eastwest;rotatable=0;whiteSpace=wrap;html=1;" vertex="1" parent="bdeqUx--kDpb1p-4bheV-77">
          <mxGeometry y="10" width="130" height="70" as="geometry" />
        </mxCell>
        <mxCell id="bdeqUx--kDpb1p-4bheV-79" value="" style="endArrow=classic;html=1;rounded=0;entryX=0.697;entryY=-0.022;entryDx=0;entryDy=0;entryPerimeter=0;" edge="1" parent="1" target="bdeqUx--kDpb1p-4bheV-22">
          <mxGeometry width="50" height="50" relative="1" as="geometry">
            <mxPoint x="1285" y="1010" as="sourcePoint" />
            <mxPoint x="1565" y="1080" as="targetPoint" />
          </mxGeometry>
        </mxCell>
        <mxCell id="bdeqUx--kDpb1p-4bheV-80" value="" style="endArrow=classic;html=1;rounded=0;entryX=0.25;entryY=0;entryDx=0;entryDy=0;" edge="1" parent="1" target="bdeqUx--kDpb1p-4bheV-77">
          <mxGeometry width="50" height="50" relative="1" as="geometry">
            <mxPoint x="1435" y="1010" as="sourcePoint" />
            <mxPoint x="1535" y="1250" as="targetPoint" />
          </mxGeometry>
        </mxCell>
        <mxCell id="bdeqUx--kDpb1p-4bheV-81" value="" style="endArrow=classic;html=1;rounded=0;exitX=0.958;exitY=1.055;exitDx=0;exitDy=0;exitPerimeter=0;entryX=0.25;entryY=0;entryDx=0;entryDy=0;" edge="1" parent="1" source="bdeqUx--kDpb1p-4bheV-26" target="bdeqUx--kDpb1p-4bheV-27">
          <mxGeometry width="50" height="50" relative="1" as="geometry">
            <mxPoint x="1415" y="1170" as="sourcePoint" />
            <mxPoint x="1465" y="1120" as="targetPoint" />
          </mxGeometry>
        </mxCell>
        <mxCell id="bdeqUx--kDpb1p-4bheV-82" value="" style="endArrow=classic;html=1;rounded=0;exitX=1;exitY=0.5;exitDx=0;exitDy=0;entryX=0;entryY=0.25;entryDx=0;entryDy=0;" edge="1" parent="1" source="bdeqUx--kDpb1p-4bheV-26" target="bdeqUx--kDpb1p-4bheV-77">
          <mxGeometry width="50" height="50" relative="1" as="geometry">
            <mxPoint x="1495" y="1180" as="sourcePoint" />
            <mxPoint x="1545" y="1130" as="targetPoint" />
          </mxGeometry>
        </mxCell>
        <mxCell id="bdeqUx--kDpb1p-4bheV-83" value="" style="endArrow=classic;html=1;rounded=0;exitX=0.466;exitY=0.996;exitDx=0;exitDy=0;exitPerimeter=0;entryX=0.5;entryY=0;entryDx=0;entryDy=0;" edge="1" parent="1" source="bdeqUx--kDpb1p-4bheV-78" target="bdeqUx--kDpb1p-4bheV-48">
          <mxGeometry width="50" height="50" relative="1" as="geometry">
            <mxPoint x="2145" y="1540" as="sourcePoint" />
            <mxPoint x="2195" y="1490" as="targetPoint" />
          </mxGeometry>
        </mxCell>
        <mxCell id="bdeqUx--kDpb1p-4bheV-84" value="" style="endArrow=classic;html=1;rounded=0;exitX=0.656;exitY=0.927;exitDx=0;exitDy=0;exitPerimeter=0;entryX=0.25;entryY=0;entryDx=0;entryDy=0;" edge="1" parent="1" source="bdeqUx--kDpb1p-4bheV-31" target="bdeqUx--kDpb1p-4bheV-48">
          <mxGeometry width="50" height="50" relative="1" as="geometry">
            <mxPoint x="1715" y="1480" as="sourcePoint" />
            <mxPoint x="1765" y="1430" as="targetPoint" />
          </mxGeometry>
        </mxCell>
        <mxCell id="bdeqUx--kDpb1p-4bheV-85" value="" style="endArrow=classic;html=1;rounded=0;exitX=0.127;exitY=1.183;exitDx=0;exitDy=0;exitPerimeter=0;entryX=0.641;entryY=0;entryDx=0;entryDy=0;entryPerimeter=0;" edge="1" parent="1" source="bdeqUx--kDpb1p-4bheV-26" target="bdeqUx--kDpb1p-4bheV-33">
          <mxGeometry width="50" height="50" relative="1" as="geometry">
            <mxPoint x="575" y="1250" as="sourcePoint" />
            <mxPoint x="625" y="1200" as="targetPoint" />
          </mxGeometry>
        </mxCell>
        <mxCell id="bdeqUx--kDpb1p-4bheV-86" value="" style="endArrow=classic;html=1;rounded=0;entryX=0.484;entryY=0.013;entryDx=0;entryDy=0;entryPerimeter=0;" edge="1" parent="1" source="bdeqUx--kDpb1p-4bheV-26" target="bdeqUx--kDpb1p-4bheV-56">
          <mxGeometry width="50" height="50" relative="1" as="geometry">
            <mxPoint x="1035" y="1290" as="sourcePoint" />
            <mxPoint x="1085" y="1240" as="targetPoint" />
          </mxGeometry>
        </mxCell>
        <mxCell id="bdeqUx--kDpb1p-4bheV-87" value="" style="endArrow=classic;html=1;rounded=0;exitX=0.657;exitY=1.055;exitDx=0;exitDy=0;exitPerimeter=0;entryX=0.591;entryY=0.013;entryDx=0;entryDy=0;entryPerimeter=0;" edge="1" parent="1" source="bdeqUx--kDpb1p-4bheV-26" target="bdeqUx--kDpb1p-4bheV-74">
          <mxGeometry width="50" height="50" relative="1" as="geometry">
            <mxPoint x="1175" y="1290" as="sourcePoint" />
            <mxPoint x="1225" y="1240" as="targetPoint" />
          </mxGeometry>
        </mxCell>
        <mxCell id="bdeqUx--kDpb1p-4bheV-88" value="" style="endArrow=block;html=1;rounded=0;exitX=0.25;exitY=0;exitDx=0;exitDy=0;entryX=0.75;entryY=1;entryDx=0;entryDy=0;endFill=0;startSize=16;endSize=14;" edge="1" parent="1" source="bdeqUx--kDpb1p-4bheV-64" target="bdeqUx--kDpb1p-4bheV-53">
          <mxGeometry width="50" height="50" relative="1" as="geometry">
            <mxPoint x="795" y="1420" as="sourcePoint" />
            <mxPoint x="845" y="1370" as="targetPoint" />
          </mxGeometry>
        </mxCell>
        <mxCell id="bdeqUx--kDpb1p-4bheV-89" value="" style="endArrow=block;html=1;rounded=0;exitX=0.408;exitY=0.145;exitDx=0;exitDy=0;exitPerimeter=0;entryX=0;entryY=1;entryDx=0;entryDy=0;endFill=0;startSize=16;endSize=14;" edge="1" parent="1" source="bdeqUx--kDpb1p-4bheV-57" target="bdeqUx--kDpb1p-4bheV-53">
          <mxGeometry width="50" height="50" relative="1" as="geometry">
            <mxPoint x="785" y="1420" as="sourcePoint" />
            <mxPoint x="835" y="1370" as="targetPoint" />
          </mxGeometry>
        </mxCell>
        <mxCell id="bdeqUx--kDpb1p-4bheV-90" value="" style="endArrow=block;html=1;rounded=0;entryX=0.25;entryY=1;entryDx=0;entryDy=0;exitX=0.385;exitY=0.167;exitDx=0;exitDy=0;exitPerimeter=0;endFill=0;startSize=16;endSize=14;" edge="1" parent="1" source="bdeqUx--kDpb1p-4bheV-61" target="bdeqUx--kDpb1p-4bheV-53">
          <mxGeometry width="50" height="50" relative="1" as="geometry">
            <mxPoint x="975" y="1480" as="sourcePoint" />
            <mxPoint x="1025" y="1430" as="targetPoint" />
          </mxGeometry>
        </mxCell>
        <mxCell id="bdeqUx--kDpb1p-4bheV-91" value="" style="endArrow=block;html=1;rounded=0;exitX=0.704;exitY=0.031;exitDx=0;exitDy=0;exitPerimeter=0;entryX=0.202;entryY=1.047;entryDx=0;entryDy=0;endFill=0;entryPerimeter=0;startSize=16;endSize=14;" edge="1" parent="1" source="bdeqUx--kDpb1p-4bheV-43" target="bdeqUx--kDpb1p-4bheV-37">
          <mxGeometry width="50" height="50" relative="1" as="geometry">
            <mxPoint x="365" y="1599" as="sourcePoint" />
            <mxPoint x="416" y="1500" as="targetPoint" />
          </mxGeometry>
        </mxCell>
        <mxCell id="bdeqUx--kDpb1p-4bheV-92" value="" style="endArrow=block;html=1;rounded=0;exitX=0.303;exitY=-0.006;exitDx=0;exitDy=0;exitPerimeter=0;entryX=0.584;entryY=0.915;entryDx=0;entryDy=0;endFill=0;entryPerimeter=0;startSize=16;endSize=14;" edge="1" parent="1" source="bdeqUx--kDpb1p-4bheV-38" target="bdeqUx--kDpb1p-4bheV-37">
          <mxGeometry width="50" height="50" relative="1" as="geometry">
            <mxPoint x="595" y="1599" as="sourcePoint" />
            <mxPoint x="646" y="1500" as="targetPoint" />
          </mxGeometry>
        </mxCell>
        <mxCell id="bdeqUx--kDpb1p-4bheV-93" value="1" style="text;html=1;align=center;verticalAlign=middle;resizable=0;points=[];autosize=1;strokeColor=none;fillColor=none;" vertex="1" parent="1">
          <mxGeometry x="1525" y="1010" width="30" height="30" as="geometry" />
        </mxCell>
        <mxCell id="bdeqUx--kDpb1p-4bheV-95" value="1" style="text;html=1;align=center;verticalAlign=middle;resizable=0;points=[];autosize=1;strokeColor=none;fillColor=none;" vertex="1" parent="1">
          <mxGeometry x="1935" y="1190" width="30" height="30" as="geometry" />
        </mxCell>
        <mxCell id="bdeqUx--kDpb1p-4bheV-96" value="1" style="text;html=1;align=center;verticalAlign=middle;resizable=0;points=[];autosize=1;strokeColor=none;fillColor=none;" vertex="1" parent="1">
          <mxGeometry x="1275" y="1020" width="30" height="30" as="geometry" />
        </mxCell>
        <mxCell id="bdeqUx--kDpb1p-4bheV-97" value="1" style="text;html=1;align=center;verticalAlign=middle;resizable=0;points=[];autosize=1;strokeColor=none;fillColor=none;" vertex="1" parent="1">
          <mxGeometry x="1165" y="1080" width="30" height="30" as="geometry" />
        </mxCell>
        <mxCell id="bdeqUx--kDpb1p-4bheV-98" value="1" style="text;html=1;align=center;verticalAlign=middle;resizable=0;points=[];autosize=1;strokeColor=none;fillColor=none;" vertex="1" parent="1">
          <mxGeometry x="1305" y="1130" width="30" height="30" as="geometry" />
        </mxCell>
        <mxCell id="bdeqUx--kDpb1p-4bheV-99" value="1" style="text;html=1;align=center;verticalAlign=middle;resizable=0;points=[];autosize=1;strokeColor=none;fillColor=none;" vertex="1" parent="1">
          <mxGeometry x="1905" y="1240" width="30" height="30" as="geometry" />
        </mxCell>
        <mxCell id="bdeqUx--kDpb1p-4bheV-100" value="1" style="text;html=1;align=center;verticalAlign=middle;resizable=0;points=[];autosize=1;strokeColor=none;fillColor=none;" vertex="1" parent="1">
          <mxGeometry x="1245" y="1170" width="30" height="30" as="geometry" />
        </mxCell>
        <mxCell id="bdeqUx--kDpb1p-4bheV-101" value="1" style="text;html=1;align=center;verticalAlign=middle;resizable=0;points=[];autosize=1;strokeColor=none;fillColor=none;" vertex="1" parent="1">
          <mxGeometry x="1445" y="1230" width="30" height="30" as="geometry" />
        </mxCell>
        <mxCell id="bdeqUx--kDpb1p-4bheV-102" value="1" style="text;html=1;align=center;verticalAlign=middle;resizable=0;points=[];autosize=1;strokeColor=none;fillColor=none;" vertex="1" parent="1">
          <mxGeometry x="1655" y="1340" width="30" height="30" as="geometry" />
        </mxCell>
        <mxCell id="bdeqUx--kDpb1p-4bheV-103" value="1...*" style="text;html=1;align=center;verticalAlign=middle;resizable=0;points=[];autosize=1;strokeColor=none;fillColor=none;" vertex="1" parent="1">
          <mxGeometry x="1825" y="1455" width="40" height="30" as="geometry" />
        </mxCell>
        <mxCell id="bdeqUx--kDpb1p-4bheV-104" value="1" style="text;html=1;align=center;verticalAlign=middle;resizable=0;points=[];autosize=1;strokeColor=none;fillColor=none;" vertex="1" parent="1">
          <mxGeometry x="2015" y="1330" width="30" height="30" as="geometry" />
        </mxCell>
        <mxCell id="bdeqUx--kDpb1p-4bheV-105" value="0...*" style="text;html=1;align=center;verticalAlign=middle;resizable=0;points=[];autosize=1;strokeColor=none;fillColor=none;" vertex="1" parent="1">
          <mxGeometry x="1935" y="1440" width="40" height="30" as="geometry" />
        </mxCell>
        <mxCell id="bdeqUx--kDpb1p-4bheV-106" value="1" style="text;html=1;align=center;verticalAlign=middle;resizable=0;points=[];autosize=1;strokeColor=none;fillColor=none;" vertex="1" parent="1">
          <mxGeometry x="585" y="1310" width="30" height="30" as="geometry" />
        </mxCell>
        <mxCell id="bdeqUx--kDpb1p-4bheV-107" value="1" style="text;html=1;align=center;verticalAlign=middle;resizable=0;points=[];autosize=1;strokeColor=none;fillColor=none;" vertex="1" parent="1">
          <mxGeometry x="765" y="1180" width="30" height="30" as="geometry" />
        </mxCell>
        <mxCell id="bdeqUx--kDpb1p-4bheV-108" value="1" style="text;html=1;align=center;verticalAlign=middle;resizable=0;points=[];autosize=1;strokeColor=none;fillColor=none;" vertex="1" parent="1">
          <mxGeometry x="985" y="1170" width="30" height="30" as="geometry" />
        </mxCell>
        <mxCell id="bdeqUx--kDpb1p-4bheV-109" value="1" style="text;html=1;align=center;verticalAlign=middle;resizable=0;points=[];autosize=1;strokeColor=none;fillColor=none;" vertex="1" parent="1">
          <mxGeometry x="955" y="1270" width="30" height="30" as="geometry" />
        </mxCell>
        <mxCell id="bdeqUx--kDpb1p-4bheV-110" value="1" style="text;html=1;align=center;verticalAlign=middle;resizable=0;points=[];autosize=1;strokeColor=none;fillColor=none;" vertex="1" parent="1">
          <mxGeometry x="1075" y="1180" width="30" height="30" as="geometry" />
        </mxCell>
        <mxCell id="bdeqUx--kDpb1p-4bheV-111" value="1" style="text;html=1;align=center;verticalAlign=middle;resizable=0;points=[];autosize=1;strokeColor=none;fillColor=none;" vertex="1" parent="1">
          <mxGeometry x="1155" y="1270" width="30" height="30" as="geometry" />
        </mxCell>
        <mxCell id="bdeqUx--kDpb1p-4bheV-114" value="&lt;font style=&quot;font-size: 21px;&quot;&gt;&lt;b style=&quot;&quot;&gt;Search Module&lt;/b&gt;&lt;/font&gt;" style="text;strokeColor=none;fillColor=none;align=left;verticalAlign=middle;spacingLeft=4;spacingRight=4;overflow=hidden;points=[[0,0.5],[1,0.5]];portConstraint=eastwest;rotatable=0;whiteSpace=wrap;html=1;" vertex="1" parent="1">
          <mxGeometry x="55" y="860" width="170" height="30" as="geometry" />
        </mxCell>
        <UserObject label="" plantUmlData="{&quot;data&quot;:&quot;@startuml\n&#39;========================\n&#39; Các lớp chính\n&#39;========================\n\nclass NguoiDoc {\n  - maNguoiDoc: String\n  - hoTen: String\n  - email: String\n  --\n  + muonSach(sach: Sach): PhieuMuon\n  + traSach(phieu: PhieuMuon): void\n  + giaHan(phieu: PhieuMuon): void\n}\n\nclass Sach {\n  - maSach: String\n  - tieuDe: String\n  - tacGia: String\n  - tinhTrang: TinhTrangSach\n  --\n  + capNhatTinhTrang(tinhTrang: TinhTrangSach): void\n}\n\nclass PhieuMuon {\n  - maPhieu: String\n  - ngayMuon: Date\n  - ngayTraDuKien: Date\n  - ngayTraThucTe: Date\n  --\n  + kiemTraTreHan(): boolean\n  + tinhPhiTreHan(): double\n}\n\nclass ChiTietMuon {\n  - soLuong: int\n}\n\nclass ThuThuAdmin {\n  - maThuThu: String\n  - hoTen: String\n  --\n  + xacNhanMuon(phieu: PhieuMuon): void\n  + xacNhanTra(phieu: PhieuMuon): void\n}\n\nclass PhiTreHan {\n  - soTien: double\n  - soNgayTre: int\n  --\n  + tinhPhi(soNgayTre: int): double\n}\n\nenum TinhTrangSach {\n  SanSang\n  DangMuon\n  Mat\n}\n\n&#39;========================\n&#39; Quan hệ\n&#39;========================\n\nNguoiDoc \&quot;1\&quot; -- \&quot;0..n\&quot; PhieuMuon : tạo &gt;\nPhieuMuon \&quot;1\&quot; -- \&quot;1..n\&quot; ChiTietMuon : chứa &gt;\nChiTietMuon \&quot;1\&quot; -- \&quot;1\&quot; Sach : tham chiếu &gt;\nThuThuAdmin \&quot;1\&quot; -- \&quot;0..n\&quot; PhieuMuon : xác nhận &gt;\nPhieuMuon \&quot;0..1\&quot; -- \&quot;1\&quot; PhiTreHan : phát sinh &gt;\nSach \&quot;1\&quot; -- \&quot;0..n\&quot; ChiTietMuon : &lt; được mượn\n\n@enduml\n&quot;,&quot;format&quot;:&quot;svg&quot;}" id="bdeqUx--kDpb1p-4bheV-115">
          <mxCell style="shape=image;noLabel=1;verticalAlign=top;aspect=fixed;imageAspect=0;image=data:image/svg+xml,PHN2ZyB4bWxucz0iaHR0cDovL3d3dy53My5vcmcvMjAwMC9zdmciIHhtbG5zOnhsaW5rPSJodHRwOi8vd3d3LnczLm9yZy8xOTk5L3hsaW5rIiBjb250ZW50U3R5bGVUeXBlPSJ0ZXh0L2NzcyIgZGF0YS1kaWFncmFtLXR5cGU9IkNMQVNTIiBoZWlnaHQ9IjczMHB4IiBwcmVzZXJ2ZUFzcGVjdFJhdGlvPSJub25lIiBzdHlsZT0id2lkdGg6NzQwcHg7aGVpZ2h0OjczMHB4O2JhY2tncm91bmQ6I0ZGRkZGRjsiIHZlcnNpb249IjEuMSIgdmlld0JveD0iMCAwIDc0MCA3MzAiIHdpZHRoPSI3NDBweCIgem9vbUFuZFBhbj0ibWFnbmlmeSI+PGRlZnMvPjxnPjwhLS1jbGFzcyBOZ3VvaURvYy0tPjxnIGNsYXNzPSJlbnRpdHkiIGRhdGEtZW50aXR5PSJOZ3VvaURvYyIgZGF0YS1zb3VyY2UtbGluZT0iNSIgZGF0YS11aWQ9ImVudDAwMDIiIGlkPSJlbnRpdHlfTmd1b2lEb2MiPjxyZWN0IGZpbGw9IiNGMUYxRjEiIGhlaWdodD0iMTM3LjkwNjMiIHJ4PSIyLjUiIHJ5PSIyLjUiIHN0eWxlPSJzdHJva2U6IzE4MTgxODtzdHJva2Utd2lkdGg6MC41OyIgd2lkdGg9IjI0MyIgeD0iMjYuNSIgeT0iNyIvPjxlbGxpcHNlIGN4PSIxMTUuNzUiIGN5PSIyMyIgZmlsbD0iI0FERDFCMiIgcng9IjExIiByeT0iMTEiIHN0eWxlPSJzdHJva2U6IzE4MTgxODtzdHJva2Utd2lkdGg6MTsiLz48cGF0aCBkPSJNMTEzLjM3NSwyNy4yNSBMMTEzLjM3NSwyOSBMMTE4LjMxMjUsMjkgTDExOC4zMTI1LDI3LjI1IEwxMTMuMzc1LDI3LjI1IFogTTExNC4wNjI1LDI3LjkzNzUgUTExNC4wNjI1LDI3LjkzNzUgMTE0LjA2MjUsMTguNzUgTDExMi4zMTI1LDE4Ljc1IFExMTIuMzEyNSwxOC43NSAxMTIuMzEyNSwyNy45Mzc1IEwxMTQuMDYyNSwyNy45Mzc1IFogTTExNy42MjUsMjcuOTM3NSBMMTE5LjM3NSwyNy45Mzc1IFExMTkuMzc1LDI3LjkzNzUgMTE5LjM3NSwyNS4xMjUgTDExNy42MjUsMjUuMTI1IFExMTcuNjI1LDI1LjEyNSAxMTcuNjI1LDI3LjkzNzUgWiBNMTE3LjYyNSwxOC43NSBRMTE3LjYyNSwxOC43NSAxMTcuNjI1LDIxLjU2MjUgTDExOS4zNzUsMjEuNTYyNSBRMTE5LjM3NSwyMS41NjI1IDExOS4zNzUsMTguNzUgTDExNy42MjUsMTguNzUgWiBNMTEzLjM3NSwxOS40Mzc1IEwxMTguMzEyNSwxOS40Mzc1IEwxMTguMzEyNSwxNy42ODc1IEwxMTMuMzc1LDE3LjY4NzUgTDExMy4zNzUsMTkuNDM3NSBaICIgZmlsbD0iIzAwMDAwMCIvPjx0ZXh0IGZpbGw9IiMwMDAwMDAiIGZvbnQtZmFtaWx5PSJzYW5zLXNlcmlmIiBmb250LXNpemU9IjE0IiBsZW5ndGhBZGp1c3Q9InNwYWNpbmciIHRleHRMZW5ndGg9IjU2IiB4PSIxMzYuMjUiIHk9IjI4Ljc0MjIiPk5ndW9pRG9jPC90ZXh0PjxsaW5lIHN0eWxlPSJzdHJva2U6IzE4MTgxODtzdHJva2Utd2lkdGg6MC41OyIgeDE9IjI3LjUiIHgyPSIyNjguNSIgeTE9IjM5IiB5Mj0iMzkiLz48cmVjdCBmaWxsPSJub25lIiBoZWlnaHQ9IjYiIHN0eWxlPSJzdHJva2U6I0M4MjkzMDtzdHJva2Utd2lkdGg6MTsiIHdpZHRoPSI2IiB4PSIzNC41IiB5PSI0OC45OTIyIi8+PHRleHQgZmlsbD0iIzAwMDAwMCIgZm9udC1mYW1pbHk9InNhbnMtc2VyaWYiIGZvbnQtc2l6ZT0iMTQiIGxlbmd0aEFkanVzdD0ic3BhY2luZyIgdGV4dExlbmd0aD0iMTI2IiB4PSI0Ni41IiB5PSI1Ni4yMzQ0Ij5tYU5ndW9pRG9jOiBTdHJpbmc8L3RleHQ+PHJlY3QgZmlsbD0ibm9uZSIgaGVpZ2h0PSI2IiBzdHlsZT0ic3Ryb2tlOiNDODI5MzA7c3Ryb2tlLXdpZHRoOjE7IiB3aWR0aD0iNiIgeD0iMzQuNSIgeT0iNjMuOTc2NiIvPjx0ZXh0IGZpbGw9IiMwMDAwMDAiIGZvbnQtZmFtaWx5PSJzYW5zLXNlcmlmIiBmb250LXNpemU9IjE0IiBsZW5ndGhBZGp1c3Q9InNwYWNpbmciIHRleHRMZW5ndGg9IjkxIiB4PSI0Ni41IiB5PSI3MS4yMTg4Ij5ob1RlbjogU3RyaW5nPC90ZXh0PjxyZWN0IGZpbGw9Im5vbmUiIGhlaWdodD0iNiIgc3R5bGU9InN0cm9rZTojQzgyOTMwO3N0cm9rZS13aWR0aDoxOyIgd2lkdGg9IjYiIHg9IjM0LjUiIHk9Ijc4Ljk2MDkiLz48dGV4dCBmaWxsPSIjMDAwMDAwIiBmb250LWZhbWlseT0ic2Fucy1zZXJpZiIgZm9udC1zaXplPSIxNCIgbGVuZ3RoQWRqdXN0PSJzcGFjaW5nIiB0ZXh0TGVuZ3RoPSI5MSIgeD0iNDYuNSIgeT0iODYuMjAzMSI+ZW1haWw6IFN0cmluZzwvdGV4dD48bGluZSBzdHlsZT0ic3Ryb2tlOiMxODE4MTg7c3Ryb2tlLXdpZHRoOjE7IiB4MT0iMjcuNSIgeDI9IjI2OC41IiB5MT0iOTEuOTUzMSIgeTI9IjkxLjk1MzEiLz48ZWxsaXBzZSBjeD0iMzcuNSIgY3k9IjEwNC45NDUzIiBmaWxsPSIjODRCRTg0IiByeD0iMyIgcnk9IjMiIHN0eWxlPSJzdHJva2U6IzAzODA0ODtzdHJva2Utd2lkdGg6MTsiLz48dGV4dCBmaWxsPSIjMDAwMDAwIiBmb250LWZhbWlseT0ic2Fucy1zZXJpZiIgZm9udC1zaXplPSIxNCIgbGVuZ3RoQWRqdXN0PSJzcGFjaW5nIiB0ZXh0TGVuZ3RoPSIyMTciIHg9IjQ2LjUiIHk9IjEwOS4xODc1Ij5tdW9uU2FjaChzYWNoOiBTYWNoKTogUGhpZXVNdW9uPC90ZXh0PjxlbGxpcHNlIGN4PSIzNy41IiBjeT0iMTE5LjkyOTciIGZpbGw9IiM4NEJFODQiIHJ4PSIzIiByeT0iMyIgc3R5bGU9InN0cm9rZTojMDM4MDQ4O3N0cm9rZS13aWR0aDoxOyIvPjx0ZXh0IGZpbGw9IiMwMDAwMDAiIGZvbnQtZmFtaWx5PSJzYW5zLXNlcmlmIiBmb250LXNpemU9IjE0IiBsZW5ndGhBZGp1c3Q9InNwYWNpbmciIHRleHRMZW5ndGg9IjIxNyIgeD0iNDYuNSIgeT0iMTI0LjE3MTkiPnRyYVNhY2gocGhpZXU6IFBoaWV1TXVvbik6IHZvaWQ8L3RleHQ+PGVsbGlwc2UgY3g9IjM3LjUiIGN5PSIxMzQuOTE0MSIgZmlsbD0iIzg0QkU4NCIgcng9IjMiIHJ5PSIzIiBzdHlsZT0ic3Ryb2tlOiMwMzgwNDg7c3Ryb2tlLXdpZHRoOjE7Ii8+PHRleHQgZmlsbD0iIzAwMDAwMCIgZm9udC1mYW1pbHk9InNhbnMtc2VyaWYiIGZvbnQtc2l6ZT0iMTQiIGxlbmd0aEFkanVzdD0ic3BhY2luZyIgdGV4dExlbmd0aD0iMjEwIiB4PSI0Ni41IiB5PSIxMzkuMTU2MyI+Z2lhSGFuKHBoaWV1OiBQaGlldU11b24pOiB2b2lkPC90ZXh0PjwvZz48IS0tY2xhc3MgU2FjaC0tPjxnIGNsYXNzPSJlbnRpdHkiIGRhdGEtZW50aXR5PSJTYWNoIiBkYXRhLXNvdXJjZS1saW5lPSIxNSIgZGF0YS11aWQ9ImVudDAwMDMiIGlkPSJlbnRpdHlfU2FjaCI+PHJlY3QgZmlsbD0iI0YxRjFGMSIgaGVpZ2h0PSIxMjIuOTIxOSIgcng9IjIuNSIgcnk9IjIuNSIgc3R5bGU9InN0cm9rZTojMTgxODE4O3N0cm9rZS13aWR0aDowLjU7IiB3aWR0aD0iMzYyIiB4PSI3IiB5PSI2MDEiLz48ZWxsaXBzZSBjeD0iMTY5Ljc1IiBjeT0iNjE3IiBmaWxsPSIjQUREMUIyIiByeD0iMTEiIHJ5PSIxMSIgc3R5bGU9InN0cm9rZTojMTgxODE4O3N0cm9rZS13aWR0aDoxOyIvPjxwYXRoIGQ9Ik0xNjcuMzc1LDYyMS4yNSBMMTY3LjM3NSw2MjMgTDE3Mi4zMTI1LDYyMyBMMTcyLjMxMjUsNjIxLjI1IEwxNjcuMzc1LDYyMS4yNSBaIE0xNjguMDYyNSw2MjEuOTM3NSBRMTY4LjA2MjUsNjIxLjkzNzUgMTY4LjA2MjUsNjEyLjc1IEwxNjYuMzEyNSw2MTIuNzUgUTE2Ni4zMTI1LDYxMi43NSAxNjYuMzEyNSw2MjEuOTM3NSBMMTY4LjA2MjUsNjIxLjkzNzUgWiBNMTcxLjYyNSw2MjEuOTM3NSBMMTczLjM3NSw2MjEuOTM3NSBRMTczLjM3NSw2MjEuOTM3NSAxNzMuMzc1LDYxOS4xMjUgTDE3MS42MjUsNjE5LjEyNSBRMTcxLjYyNSw2MTkuMTI1IDE3MS42MjUsNjIxLjkzNzUgWiBNMTcxLjYyNSw2MTIuNzUgUTE3MS42MjUsNjEyLjc1IDE3MS42MjUsNjE1LjU2MjUgTDE3My4zNzUsNjE1LjU2MjUgUTE3My4zNzUsNjE1LjU2MjUgMTczLjM3NSw2MTIuNzUgTDE3MS42MjUsNjEyLjc1IFogTTE2Ny4zNzUsNjEzLjQzNzUgTDE3Mi4zMTI1LDYxMy40Mzc1IEwxNzIuMzEyNSw2MTEuNjg3NSBMMTY3LjM3NSw2MTEuNjg3NSBMMTY3LjM3NSw2MTMuNDM3NSBaICIgZmlsbD0iIzAwMDAwMCIvPjx0ZXh0IGZpbGw9IiMwMDAwMDAiIGZvbnQtZmFtaWx5PSJzYW5zLXNlcmlmIiBmb250LXNpemU9IjE0IiBsZW5ndGhBZGp1c3Q9InNwYWNpbmciIHRleHRMZW5ndGg9IjI4IiB4PSIxOTAuMjUiIHk9IjYyMi43NDIyIj5TYWNoPC90ZXh0PjxsaW5lIHN0eWxlPSJzdHJva2U6IzE4MTgxODtzdHJva2Utd2lkdGg6MC41OyIgeDE9IjgiIHgyPSIzNjgiIHkxPSI2MzMiIHkyPSI2MzMiLz48cmVjdCBmaWxsPSJub25lIiBoZWlnaHQ9IjYiIHN0eWxlPSJzdHJva2U6I0M4MjkzMDtzdHJva2Utd2lkdGg6MTsiIHdpZHRoPSI2IiB4PSIxNSIgeT0iNjQyLjk5MjIiLz48dGV4dCBmaWxsPSIjMDAwMDAwIiBmb250LWZhbWlseT0ic2Fucy1zZXJpZiIgZm9udC1zaXplPSIxNCIgbGVuZ3RoQWRqdXN0PSJzcGFjaW5nIiB0ZXh0TGVuZ3RoPSI5OCIgeD0iMjciIHk9IjY1MC4yMzQ0Ij5tYVNhY2g6IFN0cmluZzwvdGV4dD48cmVjdCBmaWxsPSJub25lIiBoZWlnaHQ9IjYiIHN0eWxlPSJzdHJva2U6I0M4MjkzMDtzdHJva2Utd2lkdGg6MTsiIHdpZHRoPSI2IiB4PSIxNSIgeT0iNjU3Ljk3NjYiLz48dGV4dCBmaWxsPSIjMDAwMDAwIiBmb250LWZhbWlseT0ic2Fucy1zZXJpZiIgZm9udC1zaXplPSIxNCIgbGVuZ3RoQWRqdXN0PSJzcGFjaW5nIiB0ZXh0TGVuZ3RoPSI5OCIgeD0iMjciIHk9IjY2NS4yMTg4Ij50aWV1RGU6IFN0cmluZzwvdGV4dD48cmVjdCBmaWxsPSJub25lIiBoZWlnaHQ9IjYiIHN0eWxlPSJzdHJva2U6I0M4MjkzMDtzdHJva2Utd2lkdGg6MTsiIHdpZHRoPSI2IiB4PSIxNSIgeT0iNjcyLjk2MDkiLz48dGV4dCBmaWxsPSIjMDAwMDAwIiBmb250LWZhbWlseT0ic2Fucy1zZXJpZiIgZm9udC1zaXplPSIxNCIgbGVuZ3RoQWRqdXN0PSJzcGFjaW5nIiB0ZXh0TGVuZ3RoPSI5OCIgeD0iMjciIHk9IjY4MC4yMDMxIj50YWNHaWE6IFN0cmluZzwvdGV4dD48cmVjdCBmaWxsPSJub25lIiBoZWlnaHQ9IjYiIHN0eWxlPSJzdHJva2U6I0M4MjkzMDtzdHJva2Utd2lkdGg6MTsiIHdpZHRoPSI2IiB4PSIxNSIgeT0iNjg3Ljk0NTMiLz48dGV4dCBmaWxsPSIjMDAwMDAwIiBmb250LWZhbWlseT0ic2Fucy1zZXJpZiIgZm9udC1zaXplPSIxNCIgbGVuZ3RoQWRqdXN0PSJzcGFjaW5nIiB0ZXh0TGVuZ3RoPSIxNjgiIHg9IjI3IiB5PSI2OTUuMTg3NSI+dGluaFRyYW5nOiBUaW5oVHJhbmdTYWNoPC90ZXh0PjxsaW5lIHN0eWxlPSJzdHJva2U6IzE4MTgxODtzdHJva2Utd2lkdGg6MTsiIHgxPSI4IiB4Mj0iMzY4IiB5MT0iNzAwLjkzNzUiIHkyPSI3MDAuOTM3NSIvPjxlbGxpcHNlIGN4PSIxOCIgY3k9IjcxMy45Mjk3IiBmaWxsPSIjODRCRTg0IiByeD0iMyIgcnk9IjMiIHN0eWxlPSJzdHJva2U6IzAzODA0ODtzdHJva2Utd2lkdGg6MTsiLz48dGV4dCBmaWxsPSIjMDAwMDAwIiBmb250LWZhbWlseT0ic2Fucy1zZXJpZiIgZm9udC1zaXplPSIxNCIgbGVuZ3RoQWRqdXN0PSJzcGFjaW5nIiB0ZXh0TGVuZ3RoPSIzMzYiIHg9IjI3IiB5PSI3MTguMTcxOSI+Y2FwTmhhdFRpbmhUcmFuZyh0aW5oVHJhbmc6IFRpbmhUcmFuZ1NhY2gpOiB2b2lkPC90ZXh0PjwvZz48IS0tY2xhc3MgUGhpZXVNdW9uLS0+PGcgY2xhc3M9ImVudGl0eSIgZGF0YS1lbnRpdHk9IlBoaWV1TXVvbiIgZGF0YS1zb3VyY2UtbGluZT0iMjQiIGRhdGEtdWlkPSJlbnQwMDA0IiBpZD0iZW50aXR5X1BoaWV1TXVvbiI+PHJlY3QgZmlsbD0iI0YxRjFGMSIgaGVpZ2h0PSIxMzcuOTA2MyIgcng9IjIuNSIgcnk9IjIuNSIgc3R5bGU9InN0cm9rZTojMTgxODE4O3N0cm9rZS13aWR0aDowLjU7IiB3aWR0aD0iMTk0IiB4PSIxOTciIHk9IjIyMCIvPjxlbGxpcHNlIGN4PSIyNTguMjUiIGN5PSIyMzYiIGZpbGw9IiNBREQxQjIiIHJ4PSIxMSIgcnk9IjExIiBzdHlsZT0ic3Ryb2tlOiMxODE4MTg7c3Ryb2tlLXdpZHRoOjE7Ii8+PHBhdGggZD0iTTI1NS44NzUsMjQwLjI1IEwyNTUuODc1LDI0MiBMMjYwLjgxMjUsMjQyIEwyNjAuODEyNSwyNDAuMjUgTDI1NS44NzUsMjQwLjI1IFogTTI1Ni41NjI1LDI0MC45Mzc1IFEyNTYuNTYyNSwyNDAuOTM3NSAyNTYuNTYyNSwyMzEuNzUgTDI1NC44MTI1LDIzMS43NSBRMjU0LjgxMjUsMjMxLjc1IDI1NC44MTI1LDI0MC45Mzc1IEwyNTYuNTYyNSwyNDAuOTM3NSBaIE0yNjAuMTI1LDI0MC45Mzc1IEwyNjEuODc1LDI0MC45Mzc1IFEyNjEuODc1LDI0MC45Mzc1IDI2MS44NzUsMjM4LjEyNSBMMjYwLjEyNSwyMzguMTI1IFEyNjAuMTI1LDIzOC4xMjUgMjYwLjEyNSwyNDAuOTM3NSBaIE0yNjAuMTI1LDIzMS43NSBRMjYwLjEyNSwyMzEuNzUgMjYwLjEyNSwyMzQuNTYyNSBMMjYxLjg3NSwyMzQuNTYyNSBRMjYxLjg3NSwyMzQuNTYyNSAyNjEuODc1LDIzMS43NSBMMjYwLjEyNSwyMzEuNzUgWiBNMjU1Ljg3NSwyMzIuNDM3NSBMMjYwLjgxMjUsMjMyLjQzNzUgTDI2MC44MTI1LDIzMC42ODc1IEwyNTUuODc1LDIzMC42ODc1IEwyNTUuODc1LDIzMi40Mzc1IFogIiBmaWxsPSIjMDAwMDAwIi8+PHRleHQgZmlsbD0iIzAwMDAwMCIgZm9udC1mYW1pbHk9InNhbnMtc2VyaWYiIGZvbnQtc2l6ZT0iMTQiIGxlbmd0aEFkanVzdD0ic3BhY2luZyIgdGV4dExlbmd0aD0iNjMiIHg9IjI3OC43NSIgeT0iMjQxLjc0MjIiPlBoaWV1TXVvbjwvdGV4dD48bGluZSBzdHlsZT0ic3Ryb2tlOiMxODE4MTg7c3Ryb2tlLXdpZHRoOjAuNTsiIHgxPSIxOTgiIHgyPSIzOTAiIHkxPSIyNTIiIHkyPSIyNTIiLz48cmVjdCBmaWxsPSJub25lIiBoZWlnaHQ9IjYiIHN0eWxlPSJzdHJva2U6I0M4MjkzMDtzdHJva2Utd2lkdGg6MTsiIHdpZHRoPSI2IiB4PSIyMDUiIHk9IjI2MS45OTIyIi8+PHRleHQgZmlsbD0iIzAwMDAwMCIgZm9udC1mYW1pbHk9InNhbnMtc2VyaWYiIGZvbnQtc2l6ZT0iMTQiIGxlbmd0aEFkanVzdD0ic3BhY2luZyIgdGV4dExlbmd0aD0iMTA1IiB4PSIyMTciIHk9IjI2OS4yMzQ0Ij5tYVBoaWV1OiBTdHJpbmc8L3RleHQ+PHJlY3QgZmlsbD0ibm9uZSIgaGVpZ2h0PSI2IiBzdHlsZT0ic3Ryb2tlOiNDODI5MzA7c3Ryb2tlLXdpZHRoOjE7IiB3aWR0aD0iNiIgeD0iMjA1IiB5PSIyNzYuOTc2NiIvPjx0ZXh0IGZpbGw9IiMwMDAwMDAiIGZvbnQtZmFtaWx5PSJzYW5zLXNlcmlmIiBmb250LXNpemU9IjE0IiBsZW5ndGhBZGp1c3Q9InNwYWNpbmciIHRleHRMZW5ndGg9Ijk4IiB4PSIyMTciIHk9IjI4NC4yMTg4Ij5uZ2F5TXVvbjogRGF0ZTwvdGV4dD48cmVjdCBmaWxsPSJub25lIiBoZWlnaHQ9IjYiIHN0eWxlPSJzdHJva2U6I0M4MjkzMDtzdHJva2Utd2lkdGg6MTsiIHdpZHRoPSI2IiB4PSIyMDUiIHk9IjI5MS45NjA5Ii8+PHRleHQgZmlsbD0iIzAwMDAwMCIgZm9udC1mYW1pbHk9InNhbnMtc2VyaWYiIGZvbnQtc2l6ZT0iMTQiIGxlbmd0aEFkanVzdD0ic3BhY2luZyIgdGV4dExlbmd0aD0iMTMzIiB4PSIyMTciIHk9IjI5OS4yMDMxIj5uZ2F5VHJhRHVLaWVuOiBEYXRlPC90ZXh0PjxyZWN0IGZpbGw9Im5vbmUiIGhlaWdodD0iNiIgc3R5bGU9InN0cm9rZTojQzgyOTMwO3N0cm9rZS13aWR0aDoxOyIgd2lkdGg9IjYiIHg9IjIwNSIgeT0iMzA2Ljk0NTMiLz48dGV4dCBmaWxsPSIjMDAwMDAwIiBmb250LWZhbWlseT0ic2Fucy1zZXJpZiIgZm9udC1zaXplPSIxNCIgbGVuZ3RoQWRqdXN0PSJzcGFjaW5nIiB0ZXh0TGVuZ3RoPSIxMzMiIHg9IjIxNyIgeT0iMzE0LjE4NzUiPm5nYXlUcmFUaHVjVGU6IERhdGU8L3RleHQ+PGxpbmUgc3R5bGU9InN0cm9rZTojMTgxODE4O3N0cm9rZS13aWR0aDoxOyIgeDE9IjE5OCIgeDI9IjM5MCIgeTE9IjMxOS45Mzc1IiB5Mj0iMzE5LjkzNzUiLz48ZWxsaXBzZSBjeD0iMjA4IiBjeT0iMzMyLjkyOTciIGZpbGw9IiM4NEJFODQiIHJ4PSIzIiByeT0iMyIgc3R5bGU9InN0cm9rZTojMDM4MDQ4O3N0cm9rZS13aWR0aDoxOyIvPjx0ZXh0IGZpbGw9IiMwMDAwMDAiIGZvbnQtZmFtaWx5PSJzYW5zLXNlcmlmIiBmb250LXNpemU9IjE0IiBsZW5ndGhBZGp1c3Q9InNwYWNpbmciIHRleHRMZW5ndGg9IjE2OCIgeD0iMjE3IiB5PSIzMzcuMTcxOSI+a2llbVRyYVRyZUhhbigpOiBib29sZWFuPC90ZXh0PjxlbGxpcHNlIGN4PSIyMDgiIGN5PSIzNDcuOTE0MSIgZmlsbD0iIzg0QkU4NCIgcng9IjMiIHJ5PSIzIiBzdHlsZT0ic3Ryb2tlOiMwMzgwNDg7c3Ryb2tlLXdpZHRoOjE7Ii8+PHRleHQgZmlsbD0iIzAwMDAwMCIgZm9udC1mYW1pbHk9InNhbnMtc2VyaWYiIGZvbnQtc2l6ZT0iMTQiIGxlbmd0aEFkanVzdD0ic3BhY2luZyIgdGV4dExlbmd0aD0iMTYxIiB4PSIyMTciIHk9IjM1Mi4xNTYzIj50aW5oUGhpVHJlSGFuKCk6IGRvdWJsZTwvdGV4dD48L2c+PCEtLWNsYXNzIENoaVRpZXRNdW9uLS0+PGcgY2xhc3M9ImVudGl0eSIgZGF0YS1lbnRpdHk9IkNoaVRpZXRNdW9uIiBkYXRhLXNvdXJjZS1saW5lPSIzNCIgZGF0YS11aWQ9ImVudDAwMDUiIGlkPSJlbnRpdHlfQ2hpVGlldE11b24iPjxyZWN0IGZpbGw9IiNGMUYxRjEiIGhlaWdodD0iNjIuOTg0NCIgcng9IjIuNSIgcnk9IjIuNSIgc3R5bGU9InN0cm9rZTojMTgxODE4O3N0cm9rZS13aWR0aDowLjU7IiB3aWR0aD0iMTEwIiB4PSIxMzMiIHk9IjQ0OCIvPjxlbGxpcHNlIGN4PSIxNDguNDUiIGN5PSI0NjQiIGZpbGw9IiNBREQxQjIiIHJ4PSIxMSIgcnk9IjExIiBzdHlsZT0ic3Ryb2tlOiMxODE4MTg7c3Ryb2tlLXdpZHRoOjE7Ii8+PHBhdGggZD0iTTE0Ni4wNzUsNDY4LjI1IEwxNDYuMDc1LDQ3MCBMMTUxLjAxMjUsNDcwIEwxNTEuMDEyNSw0NjguMjUgTDE0Ni4wNzUsNDY4LjI1IFogTTE0Ni43NjI1LDQ2OC45Mzc1IFExNDYuNzYyNSw0NjguOTM3NSAxNDYuNzYyNSw0NTkuNzUgTDE0NS4wMTI1LDQ1OS43NSBRMTQ1LjAxMjUsNDU5Ljc1IDE0NS4wMTI1LDQ2OC45Mzc1IEwxNDYuNzYyNSw0NjguOTM3NSBaIE0xNTAuMzI1LDQ2OC45Mzc1IEwxNTIuMDc1LDQ2OC45Mzc1IFExNTIuMDc1LDQ2OC45Mzc1IDE1Mi4wNzUsNDY2LjEyNSBMMTUwLjMyNSw0NjYuMTI1IFExNTAuMzI1LDQ2Ni4xMjUgMTUwLjMyNSw0NjguOTM3NSBaIE0xNTAuMzI1LDQ1OS43NSBRMTUwLjMyNSw0NTkuNzUgMTUwLjMyNSw0NjIuNTYyNSBMMTUyLjA3NSw0NjIuNTYyNSBRMTUyLjA3NSw0NjIuNTYyNSAxNTIuMDc1LDQ1OS43NSBMMTUwLjMyNSw0NTkuNzUgWiBNMTQ2LjA3NSw0NjAuNDM3NSBMMTUxLjAxMjUsNDYwLjQzNzUgTDE1MS4wMTI1LDQ1OC42ODc1IEwxNDYuMDc1LDQ1OC42ODc1IEwxNDYuMDc1LDQ2MC40Mzc1IFogIiBmaWxsPSIjMDAwMDAwIi8+PHRleHQgZmlsbD0iIzAwMDAwMCIgZm9udC1mYW1pbHk9InNhbnMtc2VyaWYiIGZvbnQtc2l6ZT0iMTQiIGxlbmd0aEFkanVzdD0ic3BhY2luZyIgdGV4dExlbmd0aD0iNzciIHg9IjE2Mi41NSIgeT0iNDY5Ljc0MjIiPkNoaVRpZXRNdW9uPC90ZXh0PjxsaW5lIHN0eWxlPSJzdHJva2U6IzE4MTgxODtzdHJva2Utd2lkdGg6MC41OyIgeDE9IjEzNCIgeDI9IjI0MiIgeTE9IjQ4MCIgeTI9IjQ4MCIvPjxyZWN0IGZpbGw9Im5vbmUiIGhlaWdodD0iNiIgc3R5bGU9InN0cm9rZTojQzgyOTMwO3N0cm9rZS13aWR0aDoxOyIgd2lkdGg9IjYiIHg9IjE0MSIgeT0iNDg5Ljk5MjIiLz48dGV4dCBmaWxsPSIjMDAwMDAwIiBmb250LWZhbWlseT0ic2Fucy1zZXJpZiIgZm9udC1zaXplPSIxNCIgbGVuZ3RoQWRqdXN0PSJzcGFjaW5nIiB0ZXh0TGVuZ3RoPSI4NCIgeD0iMTUzIiB5PSI0OTcuMjM0NCI+c29MdW9uZzogaW50PC90ZXh0PjxsaW5lIHN0eWxlPSJzdHJva2U6IzE4MTgxODtzdHJva2Utd2lkdGg6MC41OyIgeDE9IjEzNCIgeDI9IjI0MiIgeTE9IjUwMi45ODQ0IiB5Mj0iNTAyLjk4NDQiLz48L2c+PCEtLWNsYXNzIFRodVRodUFkbWluLS0+PGcgY2xhc3M9ImVudGl0eSIgZGF0YS1lbnRpdHk9IlRodVRodUFkbWluIiBkYXRhLXNvdXJjZS1saW5lPSIzOCIgZGF0YS11aWQ9ImVudDAwMDYiIGlkPSJlbnRpdHlfVGh1VGh1QWRtaW4iPjxyZWN0IGZpbGw9IiNGMUYxRjEiIGhlaWdodD0iMTA3LjkzNzUiIHJ4PSIyLjUiIHJ5PSIyLjUiIHN0eWxlPSJzdHJva2U6IzE4MTgxODtzdHJva2Utd2lkdGg6MC41OyIgd2lkdGg9IjI3MSIgeD0iMzA0LjUiIHk9IjIyIi8+PGVsbGlwc2UgY3g9IjM5Ny4yNSIgY3k9IjM4IiBmaWxsPSIjQUREMUIyIiByeD0iMTEiIHJ5PSIxMSIgc3R5bGU9InN0cm9rZTojMTgxODE4O3N0cm9rZS13aWR0aDoxOyIvPjxwYXRoIGQ9Ik0zOTQuODc1LDQyLjI1IEwzOTQuODc1LDQ0IEwzOTkuODEyNSw0NCBMMzk5LjgxMjUsNDIuMjUgTDM5NC44NzUsNDIuMjUgWiBNMzk1LjU2MjUsNDIuOTM3NSBRMzk1LjU2MjUsNDIuOTM3NSAzOTUuNTYyNSwzMy43NSBMMzkzLjgxMjUsMzMuNzUgUTM5My44MTI1LDMzLjc1IDM5My44MTI1LDQyLjkzNzUgTDM5NS41NjI1LDQyLjkzNzUgWiBNMzk5LjEyNSw0Mi45Mzc1IEw0MDAuODc1LDQyLjkzNzUgUTQwMC44NzUsNDIuOTM3NSA0MDAuODc1LDQwLjEyNSBMMzk5LjEyNSw0MC4xMjUgUTM5OS4xMjUsNDAuMTI1IDM5OS4xMjUsNDIuOTM3NSBaIE0zOTkuMTI1LDMzLjc1IFEzOTkuMTI1LDMzLjc1IDM5OS4xMjUsMzYuNTYyNSBMNDAwLjg3NSwzNi41NjI1IFE0MDAuODc1LDM2LjU2MjUgNDAwLjg3NSwzMy43NSBMMzk5LjEyNSwzMy43NSBaIE0zOTQuODc1LDM0LjQzNzUgTDM5OS44MTI1LDM0LjQzNzUgTDM5OS44MTI1LDMyLjY4NzUgTDM5NC44NzUsMzIuNjg3NSBMMzk0Ljg3NSwzNC40Mzc1IFogIiBmaWxsPSIjMDAwMDAwIi8+PHRleHQgZmlsbD0iIzAwMDAwMCIgZm9udC1mYW1pbHk9InNhbnMtc2VyaWYiIGZvbnQtc2l6ZT0iMTQiIGxlbmd0aEFkanVzdD0ic3BhY2luZyIgdGV4dExlbmd0aD0iNzciIHg9IjQxNy43NSIgeT0iNDMuNzQyMiI+VGh1VGh1QWRtaW48L3RleHQ+PGxpbmUgc3R5bGU9InN0cm9rZTojMTgxODE4O3N0cm9rZS13aWR0aDowLjU7IiB4MT0iMzA1LjUiIHgyPSI1NzQuNSIgeTE9IjU0IiB5Mj0iNTQiLz48cmVjdCBmaWxsPSJub25lIiBoZWlnaHQ9IjYiIHN0eWxlPSJzdHJva2U6I0M4MjkzMDtzdHJva2Utd2lkdGg6MTsiIHdpZHRoPSI2IiB4PSIzMTIuNSIgeT0iNjMuOTkyMiIvPjx0ZXh0IGZpbGw9IiMwMDAwMDAiIGZvbnQtZmFtaWx5PSJzYW5zLXNlcmlmIiBmb250LXNpemU9IjE0IiBsZW5ndGhBZGp1c3Q9InNwYWNpbmciIHRleHRMZW5ndGg9IjExMiIgeD0iMzI0LjUiIHk9IjcxLjIzNDQiPm1hVGh1VGh1OiBTdHJpbmc8L3RleHQ+PHJlY3QgZmlsbD0ibm9uZSIgaGVpZ2h0PSI2IiBzdHlsZT0ic3Ryb2tlOiNDODI5MzA7c3Ryb2tlLXdpZHRoOjE7IiB3aWR0aD0iNiIgeD0iMzEyLjUiIHk9Ijc4Ljk3NjYiLz48dGV4dCBmaWxsPSIjMDAwMDAwIiBmb250LWZhbWlseT0ic2Fucy1zZXJpZiIgZm9udC1zaXplPSIxNCIgbGVuZ3RoQWRqdXN0PSJzcGFjaW5nIiB0ZXh0TGVuZ3RoPSI5MSIgeD0iMzI0LjUiIHk9Ijg2LjIxODgiPmhvVGVuOiBTdHJpbmc8L3RleHQ+PGxpbmUgc3R5bGU9InN0cm9rZTojMTgxODE4O3N0cm9rZS13aWR0aDoxOyIgeDE9IjMwNS41IiB4Mj0iNTc0LjUiIHkxPSI5MS45Njg4IiB5Mj0iOTEuOTY4OCIvPjxlbGxpcHNlIGN4PSIzMTUuNSIgY3k9IjEwNC45NjA5IiBmaWxsPSIjODRCRTg0IiByeD0iMyIgcnk9IjMiIHN0eWxlPSJzdHJva2U6IzAzODA0ODtzdHJva2Utd2lkdGg6MTsiLz48dGV4dCBmaWxsPSIjMDAwMDAwIiBmb250LWZhbWlseT0ic2Fucy1zZXJpZiIgZm9udC1zaXplPSIxNCIgbGVuZ3RoQWRqdXN0PSJzcGFjaW5nIiB0ZXh0TGVuZ3RoPSIyNDUiIHg9IjMyNC41IiB5PSIxMDkuMjAzMSI+eGFjTmhhbk11b24ocGhpZXU6IFBoaWV1TXVvbik6IHZvaWQ8L3RleHQ+PGVsbGlwc2UgY3g9IjMxNS41IiBjeT0iMTE5Ljk0NTMiIGZpbGw9IiM4NEJFODQiIHJ4PSIzIiByeT0iMyIgc3R5bGU9InN0cm9rZTojMDM4MDQ4O3N0cm9rZS13aWR0aDoxOyIvPjx0ZXh0IGZpbGw9IiMwMDAwMDAiIGZvbnQtZmFtaWx5PSJzYW5zLXNlcmlmIiBmb250LXNpemU9IjE0IiBsZW5ndGhBZGp1c3Q9InNwYWNpbmciIHRleHRMZW5ndGg9IjIzOCIgeD0iMzI0LjUiIHk9IjEyNC4xODc1Ij54YWNOaGFuVHJhKHBoaWV1OiBQaGlldU11b24pOiB2b2lkPC90ZXh0PjwvZz48IS0tY2xhc3MgUGhpVHJlSGFuLS0+PGcgY2xhc3M9ImVudGl0eSIgZGF0YS1lbnRpdHk9IlBoaVRyZUhhbiIgZGF0YS1zb3VyY2UtbGluZT0iNDYiIGRhdGEtdWlkPSJlbnQwMDA3IiBpZD0iZW50aXR5X1BoaVRyZUhhbiI+PHJlY3QgZmlsbD0iI0YxRjFGMSIgaGVpZ2h0PSI5Mi45NTMxIiByeD0iMi41IiByeT0iMi41IiBzdHlsZT0ic3Ryb2tlOiMxODE4MTg7c3Ryb2tlLXdpZHRoOjAuNTsiIHdpZHRoPSIyNDMiIHg9IjI3OC41IiB5PSI0MzMiLz48ZWxsaXBzZSBjeD0iMzY0LjI1IiBjeT0iNDQ5IiBmaWxsPSIjQUREMUIyIiByeD0iMTEiIHJ5PSIxMSIgc3R5bGU9InN0cm9rZTojMTgxODE4O3N0cm9rZS13aWR0aDoxOyIvPjxwYXRoIGQ9Ik0zNjEuODc1LDQ1My4yNSBMMzYxLjg3NSw0NTUgTDM2Ni44MTI1LDQ1NSBMMzY2LjgxMjUsNDUzLjI1IEwzNjEuODc1LDQ1My4yNSBaIE0zNjIuNTYyNSw0NTMuOTM3NSBRMzYyLjU2MjUsNDUzLjkzNzUgMzYyLjU2MjUsNDQ0Ljc1IEwzNjAuODEyNSw0NDQuNzUgUTM2MC44MTI1LDQ0NC43NSAzNjAuODEyNSw0NTMuOTM3NSBMMzYyLjU2MjUsNDUzLjkzNzUgWiBNMzY2LjEyNSw0NTMuOTM3NSBMMzY3Ljg3NSw0NTMuOTM3NSBRMzY3Ljg3NSw0NTMuOTM3NSAzNjcuODc1LDQ1MS4xMjUgTDM2Ni4xMjUsNDUxLjEyNSBRMzY2LjEyNSw0NTEuMTI1IDM2Ni4xMjUsNDUzLjkzNzUgWiBNMzY2LjEyNSw0NDQuNzUgUTM2Ni4xMjUsNDQ0Ljc1IDM2Ni4xMjUsNDQ3LjU2MjUgTDM2Ny44NzUsNDQ3LjU2MjUgUTM2Ny44NzUsNDQ3LjU2MjUgMzY3Ljg3NSw0NDQuNzUgTDM2Ni4xMjUsNDQ0Ljc1IFogTTM2MS44NzUsNDQ1LjQzNzUgTDM2Ni44MTI1LDQ0NS40Mzc1IEwzNjYuODEyNSw0NDMuNjg3NSBMMzYxLjg3NSw0NDMuNjg3NSBMMzYxLjg3NSw0NDUuNDM3NSBaICIgZmlsbD0iIzAwMDAwMCIvPjx0ZXh0IGZpbGw9IiMwMDAwMDAiIGZvbnQtZmFtaWx5PSJzYW5zLXNlcmlmIiBmb250LXNpemU9IjE0IiBsZW5ndGhBZGp1c3Q9InNwYWNpbmciIHRleHRMZW5ndGg9IjYzIiB4PSIzODQuNzUiIHk9IjQ1NC43NDIyIj5QaGlUcmVIYW48L3RleHQ+PGxpbmUgc3R5bGU9InN0cm9rZTojMTgxODE4O3N0cm9rZS13aWR0aDowLjU7IiB4MT0iMjc5LjUiIHgyPSI1MjAuNSIgeTE9IjQ2NSIgeTI9IjQ2NSIvPjxyZWN0IGZpbGw9Im5vbmUiIGhlaWdodD0iNiIgc3R5bGU9InN0cm9rZTojQzgyOTMwO3N0cm9rZS13aWR0aDoxOyIgd2lkdGg9IjYiIHg9IjI4Ni41IiB5PSI0NzQuOTkyMiIvPjx0ZXh0IGZpbGw9IiMwMDAwMDAiIGZvbnQtZmFtaWx5PSJzYW5zLXNlcmlmIiBmb250LXNpemU9IjE0IiBsZW5ndGhBZGp1c3Q9InNwYWNpbmciIHRleHRMZW5ndGg9Ijk4IiB4PSIyOTguNSIgeT0iNDgyLjIzNDQiPnNvVGllbjogZG91YmxlPC90ZXh0PjxyZWN0IGZpbGw9Im5vbmUiIGhlaWdodD0iNiIgc3R5bGU9InN0cm9rZTojQzgyOTMwO3N0cm9rZS13aWR0aDoxOyIgd2lkdGg9IjYiIHg9IjI4Ni41IiB5PSI0ODkuOTc2NiIvPjx0ZXh0IGZpbGw9IiMwMDAwMDAiIGZvbnQtZmFtaWx5PSJzYW5zLXNlcmlmIiBmb250LXNpemU9IjE0IiBsZW5ndGhBZGp1c3Q9InNwYWNpbmciIHRleHRMZW5ndGg9Ijk4IiB4PSIyOTguNSIgeT0iNDk3LjIxODgiPnNvTmdheVRyZTogaW50PC90ZXh0PjxsaW5lIHN0eWxlPSJzdHJva2U6IzE4MTgxODtzdHJva2Utd2lkdGg6MTsiIHgxPSIyNzkuNSIgeDI9IjUyMC41IiB5MT0iNTAyLjk2ODgiIHkyPSI1MDIuOTY4OCIvPjxlbGxpcHNlIGN4PSIyODkuNSIgY3k9IjUxNS45NjA5IiBmaWxsPSIjODRCRTg0IiByeD0iMyIgcnk9IjMiIHN0eWxlPSJzdHJva2U6IzAzODA0ODtzdHJva2Utd2lkdGg6MTsiLz48dGV4dCBmaWxsPSIjMDAwMDAwIiBmb250LWZhbWlseT0ic2Fucy1zZXJpZiIgZm9udC1zaXplPSIxNCIgbGVuZ3RoQWRqdXN0PSJzcGFjaW5nIiB0ZXh0TGVuZ3RoPSIyMTciIHg9IjI5OC41IiB5PSI1MjAuMjAzMSI+dGluaFBoaShzb05nYXlUcmU6IGludCk6IGRvdWJsZTwvdGV4dD48L2c+PCEtLWNsYXNzIFRpbmhUcmFuZ1NhY2gtLT48ZyBjbGFzcz0iZW50aXR5IiBkYXRhLWVudGl0eT0iVGluaFRyYW5nU2FjaCIgZGF0YS1zb3VyY2UtbGluZT0iNTMiIGRhdGEtdWlkPSJlbnQwMDA4IiBpZD0iZW50aXR5X1RpbmhUcmFuZ1NhY2giPjxyZWN0IGZpbGw9IiNGMUYxRjEiIGhlaWdodD0iOTIuOTUzMSIgcng9IjIuNSIgcnk9IjIuNSIgc3R5bGU9InN0cm9rZTojMTgxODE4O3N0cm9rZS13aWR0aDowLjU7IiB3aWR0aD0iMTIzIiB4PSI2MTAuNSIgeT0iMjkuNSIvPjxlbGxpcHNlIGN4PSI2MjUuNSIgY3k9IjQ1LjUiIGZpbGw9IiNFQjkzN0YiIHJ4PSIxMSIgcnk9IjExIiBzdHlsZT0ic3Ryb2tlOiMxODE4MTg7c3Ryb2tlLXdpZHRoOjE7Ii8+PHBhdGggZD0iTTYyOS4xMjUsNTEuNSBMNjI5LjEyNSw0OS43NSBMNjIzLjgxMjUsNDkuNzUgUTYyMy44MTI1LDQ5Ljc1IDYyMy44MTI1LDQ2LjE4NzUgTDYyOC4wNjI1LDQ2LjE4NzUgTDYyOC4wNjI1LDQ0LjQzNzUgTDYyMy44MTI1LDQ0LjQzNzUgTDYyMy44MTI1LDQxLjkzNzUgTDYyOS4xMjUsNDEuOTM3NSBMNjI5LjEyNSw0MC4xODc1IEw2MjIuMDYyNSw0MC4xODc1IFE2MjIuMDYyNSw0MC4xODc1IDYyMi4wNjI1LDUxLjUgTDYyOS4xMjUsNTEuNSBaICIgZmlsbD0iIzAwMDAwMCIvPjx0ZXh0IGZpbGw9IiMwMDAwMDAiIGZvbnQtZmFtaWx5PSJzYW5zLXNlcmlmIiBmb250LXNpemU9IjE0IiBsZW5ndGhBZGp1c3Q9InNwYWNpbmciIHRleHRMZW5ndGg9IjkxIiB4PSI2MzkuNSIgeT0iNTEuMjQyMiI+VGluaFRyYW5nU2FjaDwvdGV4dD48bGluZSBzdHlsZT0ic3Ryb2tlOiMxODE4MTg7c3Ryb2tlLXdpZHRoOjAuNTsiIHgxPSI2MTEuNSIgeDI9IjczMi41IiB5MT0iNjEuNSIgeTI9IjYxLjUiLz48dGV4dCBmaWxsPSIjMDAwMDAwIiBmb250LWZhbWlseT0ic2Fucy1zZXJpZiIgZm9udC1zaXplPSIxNCIgbGVuZ3RoQWRqdXN0PSJzcGFjaW5nIiB0ZXh0TGVuZ3RoPSI0OSIgeD0iNjE2LjUiIHk9Ijc4LjczNDQiPlNhblNhbmc8L3RleHQ+PHRleHQgZmlsbD0iIzAwMDAwMCIgZm9udC1mYW1pbHk9InNhbnMtc2VyaWYiIGZvbnQtc2l6ZT0iMTQiIGxlbmd0aEFkanVzdD0ic3BhY2luZyIgdGV4dExlbmd0aD0iNTYiIHg9IjYxNi41IiB5PSI5My43MTg4Ij5EYW5nTXVvbjwvdGV4dD48dGV4dCBmaWxsPSIjMDAwMDAwIiBmb250LWZhbWlseT0ic2Fucy1zZXJpZiIgZm9udC1zaXplPSIxNCIgbGVuZ3RoQWRqdXN0PSJzcGFjaW5nIiB0ZXh0TGVuZ3RoPSIyMSIgeD0iNjE2LjUiIHk9IjEwOC43MDMxIj5NYXQ8L3RleHQ+PGxpbmUgc3R5bGU9InN0cm9rZTojMTgxODE4O3N0cm9rZS13aWR0aDowLjU7IiB4MT0iNjExLjUiIHgyPSI3MzIuNSIgeTE9IjExNC40NTMxIiB5Mj0iMTE0LjQ1MzEiLz48L2c+PCEtLWxpbmsgTmd1b2lEb2MgdG8gUGhpZXVNdW9uLS0+PGcgY2xhc3M9ImxpbmsiIGRhdGEtZW50aXR5LTE9Ik5ndW9pRG9jIiBkYXRhLWVudGl0eS0yPSJQaGlldU11b24iIGRhdGEtc291cmNlLWxpbmU9IjYzIiBkYXRhLXVpZD0ibG5rOSIgaWQ9ImxpbmtfTmd1b2lEb2NfUGhpZXVNdW9uIj48cGF0aCBjb2RlTGluZT0iNjMiIGQ9Ik0xOTUuMiwxNDUuMjEgQzIxMS43LDE2OS4wNSAyMzAuMjEsMTk1LjgxIDI0Ni43MSwyMTkuNjYiIGZpbGw9Im5vbmUiIGlkPSJOZ3VvaURvYy1QaGlldU11b24iIHN0eWxlPSJzdHJva2U6IzE4MTgxODtzdHJva2Utd2lkdGg6MTsiLz48cG9seWdvbiBmaWxsPSIjMDAwMDAwIiBwb2ludHM9IjIzMy44NDQ4LDE4Ny4wNjg4LDIzMS4xMTUzLDE3Ny45NTg0LDIyNi4yODE2LDE4MS4zMDI3LDIzMy44NDQ4LDE4Ny4wNjg4IiBzdHlsZT0ic3Ryb2tlOiMwMDAwMDA7c3Ryb2tlLXdpZHRoOjE7Ii8+PHRleHQgZmlsbD0iIzAwMDAwMCIgZm9udC1mYW1pbHk9InNhbnMtc2VyaWYiIGZvbnQtc2l6ZT0iMTMiIGxlbmd0aEFkanVzdD0ic3BhY2luZyIgdGV4dExlbmd0aD0iMTkuNSIgeD0iMjQwIiB5PSIxODguMjg5MSI+dCYjNzg0MTtvPC90ZXh0Pjx0ZXh0IGZpbGw9IiMwMDAwMDAiIGZvbnQtZmFtaWx5PSJzYW5zLXNlcmlmIiBmb250LXNpemU9IjEzIiBsZW5ndGhBZGp1c3Q9InNwYWNpbmciIHRleHRMZW5ndGg9IjYuNSIgeD0iMTkzLjc4MzkiIHk9IjE2NS4zNTg2Ij4xPC90ZXh0Pjx0ZXh0IGZpbGw9IiMwMDAwMDAiIGZvbnQtZmFtaWx5PSJzYW5zLXNlcmlmIiBmb250LXNpemU9IjEzIiBsZW5ndGhBZGp1c3Q9InNwYWNpbmciIHRleHRMZW5ndGg9IjI2IiB4PSIyMTMuNzM5IiB5PSIyMTAuMjM4MyI+MC4ubjwvdGV4dD48L2c+PCEtLWxpbmsgUGhpZXVNdW9uIHRvIENoaVRpZXRNdW9uLS0+PGcgY2xhc3M9ImxpbmsiIGRhdGEtZW50aXR5LTE9IlBoaWV1TXVvbiIgZGF0YS1lbnRpdHktMj0iQ2hpVGlldE11b24iIGRhdGEtc291cmNlLWxpbmU9IjY0IiBkYXRhLXVpZD0ibG5rMTAiIGlkPSJsaW5rX1BoaWV1TXVvbl9DaGlUaWV0TXVvbiI+PHBhdGggY29kZUxpbmU9IjY0IiBkPSJNMjU1LjczLDM1OC4wNSBDMjM4LjQyLDM4OC44NSAyMTguODIsNDIzLjY5IDIwNS4xOCw0NDcuOTUiIGZpbGw9Im5vbmUiIGlkPSJQaGlldU11b24tQ2hpVGlldE11b24iIHN0eWxlPSJzdHJva2U6IzE4MTgxODtzdHJva2Utd2lkdGg6MTsiLz48cG9seWdvbiBmaWxsPSIjMDAwMDAwIiBwb2ludHM9IjI0MC41NDk0LDQwMC4zMTUzLDI0Ny41NDQzLDM5My44NzE2LDI0Mi40MjA5LDM5MC45OTA3LDI0MC41NDk0LDQwMC4zMTUzIiBzdHlsZT0ic3Ryb2tlOiMwMDAwMDA7c3Ryb2tlLXdpZHRoOjE7Ii8+PHRleHQgZmlsbD0iIzAwMDAwMCIgZm9udC1mYW1pbHk9InNhbnMtc2VyaWYiIGZvbnQtc2l6ZT0iMTMiIGxlbmd0aEFkanVzdD0ic3BhY2luZyIgdGV4dExlbmd0aD0iMjYiIHg9IjI1MiIgeT0iNDAxLjI4OTEiPmNoJiM3OTEzO2E8L3RleHQ+PHRleHQgZmlsbD0iIzAwMDAwMCIgZm9udC1mYW1pbHk9InNhbnMtc2VyaWYiIGZvbnQtc2l6ZT0iMTMiIGxlbmd0aEFkanVzdD0ic3BhY2luZyIgdGV4dExlbmd0aD0iNi41IiB4PSIyNDUuNDk5OCIgeT0iMzc4LjE4MjEiPjE8L3RleHQ+PHRleHQgZmlsbD0iIzAwMDAwMCIgZm9udC1mYW1pbHk9InNhbnMtc2VyaWYiIGZvbnQtc2l6ZT0iMTMiIGxlbmd0aEFkanVzdD0ic3BhY2luZyIgdGV4dExlbmd0aD0iMjYiIHg9IjE4MC4xNDY2IiB5PSI0MzguNTQ3NSI+MS4ubjwvdGV4dD48L2c+PCEtLWxpbmsgQ2hpVGlldE11b24gdG8gU2FjaC0tPjxnIGNsYXNzPSJsaW5rIiBkYXRhLWVudGl0eS0xPSJDaGlUaWV0TXVvbiIgZGF0YS1lbnRpdHktMj0iU2FjaCIgZGF0YS1zb3VyY2UtbGluZT0iNjUiIGRhdGEtdWlkPSJsbmsxMSIgaWQ9ImxpbmtfQ2hpVGlldE11b25fU2FjaCI+PHBhdGggY29kZUxpbmU9IjY1IiBkPSJNMTQ4LjEzLDUxMS4wMiBDMTMxLjc2LDUyNy40NyAxMTguMDYsNTQ4LjkgMTI1LDU3MSBDMTI4LjIxLDU4MS4yMyAxMzMuMDMsNTkxLjMxIDEzOC42LDYwMC44MyIgZmlsbD0ibm9uZSIgaWQ9IkNoaVRpZXRNdW9uLVNhY2giIHN0eWxlPSJzdHJva2U6IzE4MTgxODtzdHJva2Utd2lkdGg6MTsiLz48cG9seWdvbiBmaWxsPSIjMDAwMDAwIiBwb2ludHM9IjEyOS40NzI0LDU2OC45MjkxLDEzMy4zNDk0LDU2MC4yNDQ2LDEyNy41MDQzLDU1OS42MjQ0LDEyOS40NzI0LDU2OC45MjkxIiBzdHlsZT0ic3Ryb2tlOiMwMDAwMDA7c3Ryb2tlLXdpZHRoOjE7Ii8+PHRleHQgZmlsbD0iIzAwMDAwMCIgZm9udC1mYW1pbHk9InNhbnMtc2VyaWYiIGZvbnQtc2l6ZT0iMTMiIGxlbmd0aEFkanVzdD0ic3BhY2luZyIgdGV4dExlbmd0aD0iNjUiIHg9IjEzOSIgeT0iNTY5LjI4OTEiPnRoYW0gY2hpJiM3ODcxO3U8L3RleHQ+PHRleHQgZmlsbD0iIzAwMDAwMCIgZm9udC1mYW1pbHk9InNhbnMtc2VyaWYiIGZvbnQtc2l6ZT0iMTMiIGxlbmd0aEFkanVzdD0ic3BhY2luZyIgdGV4dExlbmd0aD0iNi41IiB4PSIxMzMuMzM5NiIgeT0iNTMxLjI0NjYiPjE8L3RleHQ+PHRleHQgZmlsbD0iIzAwMDAwMCIgZm9udC1mYW1pbHk9InNhbnMtc2VyaWYiIGZvbnQtc2l6ZT0iMTMiIGxlbmd0aEFkanVzdD0ic3BhY2luZyIgdGV4dExlbmd0aD0iNi41IiB4PSIxMjUuOTE4MyIgeT0iNTkxLjQ0ODMiPjE8L3RleHQ+PC9nPjwhLS1saW5rIFNhY2ggdG8gQ2hpVGlldE11b24tLT48ZyBjbGFzcz0ibGluayIgZGF0YS1lbnRpdHktMT0iU2FjaCIgZGF0YS1lbnRpdHktMj0iQ2hpVGlldE11b24iIGRhdGEtc291cmNlLWxpbmU9IjY4IiBkYXRhLXVpZD0ibG5rMTQiIGlkPSJsaW5rX1NhY2hfQ2hpVGlldE11b24iPjxwYXRoIGNvZGVMaW5lPSI2OCIgZD0iTTIwNy4xLDYwMC45IEMyMDkuNzYsNTg2LjI2IDIxMSw1NzAuNjIgMjA5LDU1NiBDMjA2Ljk2LDU0MS4wNCAyMDIuNzQsNTI0Ljg2IDE5OC42MSw1MTEuMzMiIGZpbGw9Im5vbmUiIGlkPSJTYWNoLUNoaVRpZXRNdW9uIiBzdHlsZT0ic3Ryb2tlOiMxODE4MTg7c3Ryb2tlLXdpZHRoOjE7Ii8+PHBvbHlnb24gZmlsbD0iIzAwMDAwMCIgcG9pbnRzPSIyMTUuNDcxOCw1NjguOTM0NywyMTcuNTQ0MSw1NTkuNjUyNywyMTEuNjkyNSw1NjAuMjA3MywyMTUuNDcxOCw1NjguOTM0NyIgc3R5bGU9InN0cm9rZTojMDAwMDAwO3N0cm9rZS13aWR0aDoxOyIvPjx0ZXh0IGZpbGw9IiMwMDAwMDAiIGZvbnQtZmFtaWx5PSJzYW5zLXNlcmlmIiBmb250LXNpemU9IjEzIiBsZW5ndGhBZGp1c3Q9InNwYWNpbmciIHRleHRMZW5ndGg9IjU4LjUiIHg9IjIyNCIgeT0iNTY5LjI4OTEiPiYjMjczOyYjNDMyOyYjNzkwNztjIG0mIzQzMjsmIzc5MDc7bjwvdGV4dD48dGV4dCBmaWxsPSIjMDAwMDAwIiBmb250LWZhbWlseT0ic2Fucy1zZXJpZiIgZm9udC1zaXplPSIxMyIgbGVuZ3RoQWRqdXN0PSJzcGFjaW5nIiB0ZXh0TGVuZ3RoPSI2LjUiIHg9IjIwMy4xOTQ4IiB5PSI1OTEuNTI3MyI+MTwvdGV4dD48dGV4dCBmaWxsPSIjMDAwMDAwIiBmb250LWZhbWlseT0ic2Fucy1zZXJpZiIgZm9udC1zaXplPSIxMyIgbGVuZ3RoQWRqdXN0PSJzcGFjaW5nIiB0ZXh0TGVuZ3RoPSIyNiIgeD0iMTcyLjEzOTUiIHk9IjUzMS4yNTY4Ij4wLi5uPC90ZXh0PjwvZz48IS0tbGluayBUaHVUaHVBZG1pbiB0byBQaGlldU11b24tLT48ZyBjbGFzcz0ibGluayIgZGF0YS1lbnRpdHktMT0iVGh1VGh1QWRtaW4iIGRhdGEtZW50aXR5LTI9IlBoaWV1TXVvbiIgZGF0YS1zb3VyY2UtbGluZT0iNjYiIGRhdGEtdWlkPSJsbmsxMiIgaWQ9ImxpbmtfVGh1VGh1QWRtaW5fUGhpZXVNdW9uIj48cGF0aCBjb2RlTGluZT0iNjYiIGQ9Ik00MDMuMTYsMTMwLjI0IEMzODQuMzIsMTU3LjQ3IDM2MS4xOCwxOTAuOSAzNDEuMDcsMjE5Ljk4IiBmaWxsPSJub25lIiBpZD0iVGh1VGh1QWRtaW4tUGhpZXVNdW9uIiBzdHlsZT0ic3Ryb2tlOiMxODE4MTg7c3Ryb2tlLXdpZHRoOjE7Ii8+PHBvbHlnb24gZmlsbD0iIzAwMDAwMCIgcG9pbnRzPSIzNzMuMTU1MSwxODcuMDY4OCwzODAuNzE4NCwxODEuMzAyNywzNzUuODg0NywxNzcuOTU4NCwzNzMuMTU1MSwxODcuMDY4OCIgc3R5bGU9InN0cm9rZTojMDAwMDAwO3N0cm9rZS13aWR0aDoxOyIvPjx0ZXh0IGZpbGw9IiMwMDAwMDAiIGZvbnQtZmFtaWx5PSJzYW5zLXNlcmlmIiBmb250LXNpemU9IjEzIiBsZW5ndGhBZGp1c3Q9InNwYWNpbmciIHRleHRMZW5ndGg9IjUyIiB4PSIzODUiIHk9IjE4OC4yODkxIj54JiMyMjU7YyBuaCYjNzg1MztuPC90ZXh0Pjx0ZXh0IGZpbGw9IiMwMDAwMDAiIGZvbnQtZmFtaWx5PSJzYW5zLXNlcmlmIiBmb250LXNpemU9IjEzIiBsZW5ndGhBZGp1c3Q9InNwYWNpbmciIHRleHRMZW5ndGg9IjYuNSIgeD0iMzkyLjA4NzUiIHk9IjE1MC4zNzM5Ij4xPC90ZXh0Pjx0ZXh0IGZpbGw9IiMwMDAwMDAiIGZvbnQtZmFtaWx5PSJzYW5zLXNlcmlmIiBmb250LXNpemU9IjEzIiBsZW5ndGhBZGp1c3Q9InNwYWNpbmciIHRleHRMZW5ndGg9IjI2IiB4PSIzMTkuMDA5MyIgeT0iMjEwLjU5NTMiPjAuLm48L3RleHQ+PC9nPjwhLS1saW5rIFBoaWV1TXVvbiB0byBQaGlUcmVIYW4tLT48ZyBjbGFzcz0ibGluayIgZGF0YS1lbnRpdHktMT0iUGhpZXVNdW9uIiBkYXRhLWVudGl0eS0yPSJQaGlUcmVIYW4iIGRhdGEtc291cmNlLWxpbmU9IjY3IiBkYXRhLXVpZD0ibG5rMTMiIGlkPSJsaW5rX1BoaWV1TXVvbl9QaGlUcmVIYW4iPjxwYXRoIGNvZGVMaW5lPSI2NyIgZD0iTTMzMi4yNywzNTguMDUgQzM0Ni4yNiwzODIuOTQgMzYxLjc1LDQxMC40OCAzNzQuMzcsNDMyLjkzIiBmaWxsPSJub25lIiBpZD0iUGhpZXVNdW9uLVBoaVRyZUhhbiIgc3R5bGU9InN0cm9rZTojMTgxODE4O3N0cm9rZS13aWR0aDoxOyIvPjxwb2x5Z29uIGZpbGw9IiMwMDAwMDAiIHBvaW50cz0iMzY0LjQ1MDQsNDAwLjMxNTQsMzYyLjU3OTQsMzkwLjk5MDcsMzU3LjQ1NTgsMzkzLjg3MTQsMzY0LjQ1MDQsNDAwLjMxNTQiIHN0eWxlPSJzdHJva2U6IzAwMDAwMDtzdHJva2Utd2lkdGg6MTsiLz48dGV4dCBmaWxsPSIjMDAwMDAwIiBmb250LWZhbWlseT0ic2Fucy1zZXJpZiIgZm9udC1zaXplPSIxMyIgbGVuZ3RoQWRqdXN0PSJzcGFjaW5nIiB0ZXh0TGVuZ3RoPSI1OC41IiB4PSIzNzEiIHk9IjQwMS4yODkxIj5waCYjMjI1O3Qgc2luaDwvdGV4dD48dGV4dCBmaWxsPSIjMDAwMDAwIiBmb250LWZhbWlseT0ic2Fucy1zZXJpZiIgZm9udC1zaXplPSIxMyIgbGVuZ3RoQWRqdXN0PSJzcGFjaW5nIiB0ZXh0TGVuZ3RoPSIyNiIgeD0iMzA4Ljg3NiIgeT0iMzc4LjE4MjEiPjAuLjE8L3RleHQ+PHRleHQgZmlsbD0iIzAwMDAwMCIgZm9udC1mYW1pbHk9InNhbnMtc2VyaWYiIGZvbnQtc2l6ZT0iMTMiIGxlbmd0aEFkanVzdD0ic3BhY2luZyIgdGV4dExlbmd0aD0iNi41IiB4PSIzNjMuNjY5NiIgeT0iNDIzLjUwODkiPjE8L3RleHQ+PC9nPjwhLS1TUkM9W1hMSkRRam1tNEJ4eEFHUFZUYWo5UUF3Y0JPR082Y1lwOUFuVk9BOExiZVdqQk1rZmY5SVVVeXd2ZndNZDdXOHp4bnZ3czkzdHk5amFCN2liRXdhdG5pWnNEdnpjbGxjSDluejZoY1cyUHhpcld3QlVfYmUyNHhqeDlRQjlBM2pZMUxPTHA3QWhQUWVQVjh5MFpnMzRGUDMwdEFvYW9YcWlUQ1JMMEU0Ym9nQUY3RDdvNWFnaHJIb1BjNVFxYTlkTURtYlMyaWRqMVBhU253cEdLUE9Ec1pDSXlRa00yeVY5OVB3WjZnTnlzQ2psNzdkZnlwUGM0NmJlTXlnNzRCOUY0Zi1uYkNYTWdGODRpbHJodW9mYW5OMHY0c1l5VEpnc3ZPSy1oem9CbDZuSndpTE5FTnZoQTBjYVFCWTdvNmJnRnFsLTdwbUpiY0t5dUF0QTZ5ZEJuaFpZSlViOG9oTk0xU1VrdzJJSkdXVlpHamxoV1dVYlBzSUt0RklxTGxlQlZMMkFLZmQwZXpYcWRvdkE2TjlnaVNDSnFzZ3lIS1FMTDRzS1dfdGxVOUpFd3BGV3FfQXdDclVyQmlDTWNoZEF5Sk9QQndVaG9kSGU3ckk3QXJpRWMtcDJwOTdjdDZNTXFnRVJ4R2pxWFBlU0VBOU5iZElBVWxscHFEN3FYcDgtWUthZ25FLUVack5TNndPNEpCclBRX1dPMU1wRkZON1NWWmlKLVhsS3Nwejh6M3hpRHlKakNJQWQwYWxZb2RocHBuQXZ0LWZuOVJWREpxVTlVZEVsWGRnODZZQTQ5WU1tNUJrcldPZmdJWGpTd0E3dGVWUnR5NzN0LUJWVV9jUEdrZ1R3MFcwMF0tLT48L2c+PC9zdmc+;" vertex="1" parent="1">
            <mxGeometry x="300" y="1840" width="740" height="730" as="geometry" />
          </mxCell>
        </UserObject>
        <mxCell id="bdeqUx--kDpb1p-4bheV-117" value="&lt;span style=&quot;font-size: 21px;&quot;&gt;&lt;b&gt;Borrow/Return Module&amp;nbsp;&lt;/b&gt;&lt;/span&gt;" style="text;strokeColor=none;fillColor=none;align=left;verticalAlign=middle;spacingLeft=4;spacingRight=4;overflow=hidden;points=[[0,0.5],[1,0.5]];portConstraint=eastwest;rotatable=0;whiteSpace=wrap;html=1;" vertex="1" parent="1">
          <mxGeometry x="55" y="1790" width="280" height="70" as="geometry" />
        </mxCell>
        <UserObject label="" plantUmlData="{&quot;data&quot;:&quot;@startuml\n&#39;========================\n&#39; Các lớp chính\n&#39;========================\n\nabstract class TaiKhoan {\n  - maTaiKhoan: String\n  - hoTen: String\n  - email: String\n  - matKhau: String\n  - vaiTro: VaiTro\n  --\n  + dangNhap(email: String, matKhau: String): boolean\n  + dangXuat(): void\n  + doiMatKhau(matKhauMoi: String): void\n}\n\nclass NguoiDoc extends TaiKhoan {\n  + muonSach(sach: Sach): PhieuMuon\n  + traSach(phieu: PhieuMuon): void\n  + giaHan(phieu: PhieuMuon): void\n}\n\nclass ThuThuAdmin extends TaiKhoan {\n  + xacNhanMuon(phieu: PhieuMuon): void\n  + xacNhanTra(phieu: PhieuMuon): void\n  + taoTaiKhoanMoi(tk: TaiKhoan): void\n  + khoaTaiKhoan(maTaiKhoan: String): void\n  + capQuyen(maTaiKhoan: String, vaiTro: VaiTro): void\n}\n\nclass QuanLyTaiKhoan {\n  + dangKy(tk: TaiKhoan): void\n  + timTaiKhoan(email: String): TaiKhoan\n  + xoaTaiKhoan(maTaiKhoan: String): void\n}\n\nenum VaiTro {\n  NguoiDoc\n  ThuThuAdmin\n}\n\n&#39;========================\n&#39; Quan hệ\n&#39;========================\n\nQuanLyTaiKhoan --&gt; TaiKhoan : quản lý &gt;\n\n@enduml\n&quot;,&quot;format&quot;:&quot;svg&quot;}" id="bdeqUx--kDpb1p-4bheV-118">
          <mxCell style="shape=image;noLabel=1;verticalAlign=top;aspect=fixed;imageAspect=0;image=data:image/svg+xml,PHN2ZyB4bWxucz0iaHR0cDovL3d3dy53My5vcmcvMjAwMC9zdmciIHhtbG5zOnhsaW5rPSJodHRwOi8vd3d3LnczLm9yZy8xOTk5L3hsaW5rIiBjb250ZW50U3R5bGVUeXBlPSJ0ZXh0L2NzcyIgZGF0YS1kaWFncmFtLXR5cGU9IkNMQVNTIiBoZWlnaHQ9IjUzM3B4IiBwcmVzZXJ2ZUFzcGVjdFJhdGlvPSJub25lIiBzdHlsZT0id2lkdGg6NjY4cHg7aGVpZ2h0OjUzM3B4O2JhY2tncm91bmQ6I0ZGRkZGRjsiIHZlcnNpb249IjEuMSIgdmlld0JveD0iMCAwIDY2OCA1MzMiIHdpZHRoPSI2NjhweCIgem9vbUFuZFBhbj0ibWFnbmlmeSI+PGRlZnMvPjxnPjwhLS1jbGFzcyBUYWlLaG9hbi0tPjxnIGNsYXNzPSJlbnRpdHkiIGRhdGEtZW50aXR5PSJUYWlLaG9hbiIgZGF0YS1zb3VyY2UtbGluZT0iNSIgZGF0YS11aWQ9ImVudDAwMDIiIGlkPSJlbnRpdHlfVGFpS2hvYW4iPjxyZWN0IGZpbGw9IiNGMUYxRjEiIGhlaWdodD0iMTY3Ljg3NSIgcng9IjIuNSIgcnk9IjIuNSIgc3R5bGU9InN0cm9rZTojMTgxODE4O3N0cm9rZS13aWR0aDowLjU7IiB3aWR0aD0iMzY5IiB4PSIxMTYiIHk9IjE3NSIvPjxlbGxpcHNlIGN4PSIyNjguMjUiIGN5PSIxOTEiIGZpbGw9IiNBOURDREYiIHJ4PSIxMSIgcnk9IjExIiBzdHlsZT0ic3Ryb2tlOiMxODE4MTg7c3Ryb2tlLXdpZHRoOjE7Ii8+PHBhdGggZD0iTTI2NC44MTI1LDE4OC42MjUgTDI2NC44MTI1LDE5Ni43NSBMMjY2LjU2MjUsMTk2Ljc1IFEyNjYuNTYyNSwxOTYuNzUgMjY2LjU2MjUsMTkyLjUgTDI3MC4xMjUsMTkyLjUgUTI3MC4xMjUsMTkyLjUgMjcwLjEyNSwxOTYuNzUgTDI3MS44NzUsMTk2Ljc1IEwyNzEuODc1LDE4OC42MjUgTDI3MC4xMjUsMTg4LjYyNSBRMjcwLjEyNSwxODguNjI1IDI3MC4xMjUsMTkwLjc1IEwyNjYuNTYyNSwxOTAuNzUgUTI2Ni41NjI1LDE5MC43NSAyNjYuNTYyNSwxODguNjI1IEwyNjQuODEyNSwxODguNjI1IFogTTI2NS44NzUsMTg5LjMxMjUgTDI2Ny42MjUsMTg5LjMxMjUgUTI2Ny42MjUsMTg5LjMxMjUgMjY3LjYyNSwxODYuNSBMMjY1Ljg3NSwxODYuNSBRMjY1Ljg3NSwxODYuNSAyNjUuODc1LDE4OS4zMTI1IFogTTI3MC44MTI1LDE4OS4zMTI1IFEyNzAuODEyNSwxODkuMzEyNSAyNzAuODEyNSwxODYuNSBMMjY5LjA2MjUsMTg2LjUgUTI2OS4wNjI1LDE4Ni41IDI2OS4wNjI1LDE4OS4zMTI1IEwyNzAuODEyNSwxODkuMzEyNSBaIE0yNjYuOTM3NSwxODcuMTg3NSBMMjY5Ljc1LDE4Ny4xODc1IEwyNjkuNzUsMTg1LjQzNzUgTDI2Ni45Mzc1LDE4NS40Mzc1IEwyNjYuOTM3NSwxODcuMTg3NSBaICIgZmlsbD0iIzAwMDAwMCIvPjx0ZXh0IGZpbGw9IiMwMDAwMDAiIGZvbnQtZmFtaWx5PSJzYW5zLXNlcmlmIiBmb250LXNpemU9IjE0IiBmb250LXN0eWxlPSJpdGFsaWMiIGxlbmd0aEFkanVzdD0ic3BhY2luZyIgdGV4dExlbmd0aD0iNTYiIHg9IjI4OC43NSIgeT0iMTk2Ljc0MjIiPlRhaUtob2FuPC90ZXh0PjxsaW5lIHN0eWxlPSJzdHJva2U6IzE4MTgxODtzdHJva2Utd2lkdGg6MC41OyIgeDE9IjExNyIgeDI9IjQ4NCIgeTE9IjIwNyIgeTI9IjIwNyIvPjxyZWN0IGZpbGw9Im5vbmUiIGhlaWdodD0iNiIgc3R5bGU9InN0cm9rZTojQzgyOTMwO3N0cm9rZS13aWR0aDoxOyIgd2lkdGg9IjYiIHg9IjEyNCIgeT0iMjE2Ljk5MjIiLz48dGV4dCBmaWxsPSIjMDAwMDAwIiBmb250LWZhbWlseT0ic2Fucy1zZXJpZiIgZm9udC1zaXplPSIxNCIgbGVuZ3RoQWRqdXN0PSJzcGFjaW5nIiB0ZXh0TGVuZ3RoPSIxMjYiIHg9IjEzNiIgeT0iMjI0LjIzNDQiPm1hVGFpS2hvYW46IFN0cmluZzwvdGV4dD48cmVjdCBmaWxsPSJub25lIiBoZWlnaHQ9IjYiIHN0eWxlPSJzdHJva2U6I0M4MjkzMDtzdHJva2Utd2lkdGg6MTsiIHdpZHRoPSI2IiB4PSIxMjQiIHk9IjIzMS45NzY2Ii8+PHRleHQgZmlsbD0iIzAwMDAwMCIgZm9udC1mYW1pbHk9InNhbnMtc2VyaWYiIGZvbnQtc2l6ZT0iMTQiIGxlbmd0aEFkanVzdD0ic3BhY2luZyIgdGV4dExlbmd0aD0iOTEiIHg9IjEzNiIgeT0iMjM5LjIxODgiPmhvVGVuOiBTdHJpbmc8L3RleHQ+PHJlY3QgZmlsbD0ibm9uZSIgaGVpZ2h0PSI2IiBzdHlsZT0ic3Ryb2tlOiNDODI5MzA7c3Ryb2tlLXdpZHRoOjE7IiB3aWR0aD0iNiIgeD0iMTI0IiB5PSIyNDYuOTYwOSIvPjx0ZXh0IGZpbGw9IiMwMDAwMDAiIGZvbnQtZmFtaWx5PSJzYW5zLXNlcmlmIiBmb250LXNpemU9IjE0IiBsZW5ndGhBZGp1c3Q9InNwYWNpbmciIHRleHRMZW5ndGg9IjkxIiB4PSIxMzYiIHk9IjI1NC4yMDMxIj5lbWFpbDogU3RyaW5nPC90ZXh0PjxyZWN0IGZpbGw9Im5vbmUiIGhlaWdodD0iNiIgc3R5bGU9InN0cm9rZTojQzgyOTMwO3N0cm9rZS13aWR0aDoxOyIgd2lkdGg9IjYiIHg9IjEyNCIgeT0iMjYxLjk0NTMiLz48dGV4dCBmaWxsPSIjMDAwMDAwIiBmb250LWZhbWlseT0ic2Fucy1zZXJpZiIgZm9udC1zaXplPSIxNCIgbGVuZ3RoQWRqdXN0PSJzcGFjaW5nIiB0ZXh0TGVuZ3RoPSIxMDUiIHg9IjEzNiIgeT0iMjY5LjE4NzUiPm1hdEtoYXU6IFN0cmluZzwvdGV4dD48cmVjdCBmaWxsPSJub25lIiBoZWlnaHQ9IjYiIHN0eWxlPSJzdHJva2U6I0M4MjkzMDtzdHJva2Utd2lkdGg6MTsiIHdpZHRoPSI2IiB4PSIxMjQiIHk9IjI3Ni45Mjk3Ii8+PHRleHQgZmlsbD0iIzAwMDAwMCIgZm9udC1mYW1pbHk9InNhbnMtc2VyaWYiIGZvbnQtc2l6ZT0iMTQiIGxlbmd0aEFkanVzdD0ic3BhY2luZyIgdGV4dExlbmd0aD0iOTgiIHg9IjEzNiIgeT0iMjg0LjE3MTkiPnZhaVRybzogVmFpVHJvPC90ZXh0PjxsaW5lIHN0eWxlPSJzdHJva2U6IzE4MTgxODtzdHJva2Utd2lkdGg6MTsiIHgxPSIxMTciIHgyPSI0ODQiIHkxPSIyODkuOTIxOSIgeTI9IjI4OS45MjE5Ii8+PGVsbGlwc2UgY3g9IjEyNyIgY3k9IjMwMi45MTQxIiBmaWxsPSIjODRCRTg0IiByeD0iMyIgcnk9IjMiIHN0eWxlPSJzdHJva2U6IzAzODA0ODtzdHJva2Utd2lkdGg6MTsiLz48dGV4dCBmaWxsPSIjMDAwMDAwIiBmb250LWZhbWlseT0ic2Fucy1zZXJpZiIgZm9udC1zaXplPSIxNCIgbGVuZ3RoQWRqdXN0PSJzcGFjaW5nIiB0ZXh0TGVuZ3RoPSIzNDMiIHg9IjEzNiIgeT0iMzA3LjE1NjMiPmRhbmdOaGFwKGVtYWlsOiBTdHJpbmcsIG1hdEtoYXU6IFN0cmluZyk6IGJvb2xlYW48L3RleHQ+PGVsbGlwc2UgY3g9IjEyNyIgY3k9IjMxNy44OTg0IiBmaWxsPSIjODRCRTg0IiByeD0iMyIgcnk9IjMiIHN0eWxlPSJzdHJva2U6IzAzODA0ODtzdHJva2Utd2lkdGg6MTsiLz48dGV4dCBmaWxsPSIjMDAwMDAwIiBmb250LWZhbWlseT0ic2Fucy1zZXJpZiIgZm9udC1zaXplPSIxNCIgbGVuZ3RoQWRqdXN0PSJzcGFjaW5nIiB0ZXh0TGVuZ3RoPSIxMTIiIHg9IjEzNiIgeT0iMzIyLjE0MDYiPmRhbmdYdWF0KCk6IHZvaWQ8L3RleHQ+PGVsbGlwc2UgY3g9IjEyNyIgY3k9IjMzMi44ODI4IiBmaWxsPSIjODRCRTg0IiByeD0iMyIgcnk9IjMiIHN0eWxlPSJzdHJva2U6IzAzODA0ODtzdHJva2Utd2lkdGg6MTsiLz48dGV4dCBmaWxsPSIjMDAwMDAwIiBmb250LWZhbWlseT0ic2Fucy1zZXJpZiIgZm9udC1zaXplPSIxNCIgbGVuZ3RoQWRqdXN0PSJzcGFjaW5nIiB0ZXh0TGVuZ3RoPSIyNTIiIHg9IjEzNiIgeT0iMzM3LjEyNSI+ZG9pTWF0S2hhdShtYXRLaGF1TW9pOiBTdHJpbmcpOiB2b2lkPC90ZXh0PjwvZz48IS0tY2xhc3MgTmd1b2lEb2MtLT48ZyBjbGFzcz0iZW50aXR5IiBkYXRhLWVudGl0eT0iTmd1b2lEb2MiIGRhdGEtc291cmNlLWxpbmU9IjE3IiBkYXRhLXVpZD0iZW50MDAwMyIgaWQ9ImVudGl0eV9OZ3VvaURvYyI+PHJlY3QgZmlsbD0iI0YxRjFGMSIgaGVpZ2h0PSI5Mi45NTMxIiByeD0iMi41IiByeT0iMi41IiBzdHlsZT0ic3Ryb2tlOiMxODE4MTg7c3Ryb2tlLXdpZHRoOjAuNTsiIHdpZHRoPSIyNDMiIHg9IjciIHk9IjQxOSIvPjxlbGxpcHNlIGN4PSI5Ni4yNSIgY3k9IjQzNSIgZmlsbD0iI0FERDFCMiIgcng9IjExIiByeT0iMTEiIHN0eWxlPSJzdHJva2U6IzE4MTgxODtzdHJva2Utd2lkdGg6MTsiLz48cGF0aCBkPSJNOTMuODc1LDQzOS4yNSBMOTMuODc1LDQ0MSBMOTguODEyNSw0NDEgTDk4LjgxMjUsNDM5LjI1IEw5My44NzUsNDM5LjI1IFogTTk0LjU2MjUsNDM5LjkzNzUgUTk0LjU2MjUsNDM5LjkzNzUgOTQuNTYyNSw0MzAuNzUgTDkyLjgxMjUsNDMwLjc1IFE5Mi44MTI1LDQzMC43NSA5Mi44MTI1LDQzOS45Mzc1IEw5NC41NjI1LDQzOS45Mzc1IFogTTk4LjEyNSw0MzkuOTM3NSBMOTkuODc1LDQzOS45Mzc1IFE5OS44NzUsNDM5LjkzNzUgOTkuODc1LDQzNy4xMjUgTDk4LjEyNSw0MzcuMTI1IFE5OC4xMjUsNDM3LjEyNSA5OC4xMjUsNDM5LjkzNzUgWiBNOTguMTI1LDQzMC43NSBROTguMTI1LDQzMC43NSA5OC4xMjUsNDMzLjU2MjUgTDk5Ljg3NSw0MzMuNTYyNSBROTkuODc1LDQzMy41NjI1IDk5Ljg3NSw0MzAuNzUgTDk4LjEyNSw0MzAuNzUgWiBNOTMuODc1LDQzMS40Mzc1IEw5OC44MTI1LDQzMS40Mzc1IEw5OC44MTI1LDQyOS42ODc1IEw5My44NzUsNDI5LjY4NzUgTDkzLjg3NSw0MzEuNDM3NSBaICIgZmlsbD0iIzAwMDAwMCIvPjx0ZXh0IGZpbGw9IiMwMDAwMDAiIGZvbnQtZmFtaWx5PSJzYW5zLXNlcmlmIiBmb250LXNpemU9IjE0IiBsZW5ndGhBZGp1c3Q9InNwYWNpbmciIHRleHRMZW5ndGg9IjU2IiB4PSIxMTYuNzUiIHk9IjQ0MC43NDIyIj5OZ3VvaURvYzwvdGV4dD48bGluZSBzdHlsZT0ic3Ryb2tlOiMxODE4MTg7c3Ryb2tlLXdpZHRoOjAuNTsiIHgxPSI4IiB4Mj0iMjQ5IiB5MT0iNDUxIiB5Mj0iNDUxIi8+PGxpbmUgc3R5bGU9InN0cm9rZTojMTgxODE4O3N0cm9rZS13aWR0aDowLjU7IiB4MT0iOCIgeDI9IjI0OSIgeTE9IjQ1OSIgeTI9IjQ1OSIvPjxlbGxpcHNlIGN4PSIxOCIgY3k9IjQ3MS45OTIyIiBmaWxsPSIjODRCRTg0IiByeD0iMyIgcnk9IjMiIHN0eWxlPSJzdHJva2U6IzAzODA0ODtzdHJva2Utd2lkdGg6MTsiLz48dGV4dCBmaWxsPSIjMDAwMDAwIiBmb250LWZhbWlseT0ic2Fucy1zZXJpZiIgZm9udC1zaXplPSIxNCIgbGVuZ3RoQWRqdXN0PSJzcGFjaW5nIiB0ZXh0TGVuZ3RoPSIyMTciIHg9IjI3IiB5PSI0NzYuMjM0NCI+bXVvblNhY2goc2FjaDogU2FjaCk6IFBoaWV1TXVvbjwvdGV4dD48ZWxsaXBzZSBjeD0iMTgiIGN5PSI0ODYuOTc2NiIgZmlsbD0iIzg0QkU4NCIgcng9IjMiIHJ5PSIzIiBzdHlsZT0ic3Ryb2tlOiMwMzgwNDg7c3Ryb2tlLXdpZHRoOjE7Ii8+PHRleHQgZmlsbD0iIzAwMDAwMCIgZm9udC1mYW1pbHk9InNhbnMtc2VyaWYiIGZvbnQtc2l6ZT0iMTQiIGxlbmd0aEFkanVzdD0ic3BhY2luZyIgdGV4dExlbmd0aD0iMjE3IiB4PSIyNyIgeT0iNDkxLjIxODgiPnRyYVNhY2gocGhpZXU6IFBoaWV1TXVvbik6IHZvaWQ8L3RleHQ+PGVsbGlwc2UgY3g9IjE4IiBjeT0iNTAxLjk2MDkiIGZpbGw9IiM4NEJFODQiIHJ4PSIzIiByeT0iMyIgc3R5bGU9InN0cm9rZTojMDM4MDQ4O3N0cm9rZS13aWR0aDoxOyIvPjx0ZXh0IGZpbGw9IiMwMDAwMDAiIGZvbnQtZmFtaWx5PSJzYW5zLXNlcmlmIiBmb250LXNpemU9IjE0IiBsZW5ndGhBZGp1c3Q9InNwYWNpbmciIHRleHRMZW5ndGg9IjIxMCIgeD0iMjciIHk9IjUwNi4yMDMxIj5naWFIYW4ocGhpZXU6IFBoaWV1TXVvbik6IHZvaWQ8L3RleHQ+PC9nPjwhLS1jbGFzcyBUaHVUaHVBZG1pbi0tPjxnIGNsYXNzPSJlbnRpdHkiIGRhdGEtZW50aXR5PSJUaHVUaHVBZG1pbiIgZGF0YS1zb3VyY2UtbGluZT0iMjMiIGRhdGEtdWlkPSJlbnQwMDA1IiBpZD0iZW50aXR5X1RodVRodUFkbWluIj48cmVjdCBmaWxsPSIjRjFGMUYxIiBoZWlnaHQ9IjEyMi45MjE5IiByeD0iMi41IiByeT0iMi41IiBzdHlsZT0ic3Ryb2tlOiMxODE4MTg7c3Ryb2tlLXdpZHRoOjAuNTsiIHdpZHRoPSIzNzYiIHg9IjI4NS41IiB5PSI0MDQiLz48ZWxsaXBzZSBjeD0iNDMwLjc1IiBjeT0iNDIwIiBmaWxsPSIjQUREMUIyIiByeD0iMTEiIHJ5PSIxMSIgc3R5bGU9InN0cm9rZTojMTgxODE4O3N0cm9rZS13aWR0aDoxOyIvPjxwYXRoIGQ9Ik00MjguMzc1LDQyNC4yNSBMNDI4LjM3NSw0MjYgTDQzMy4zMTI1LDQyNiBMNDMzLjMxMjUsNDI0LjI1IEw0MjguMzc1LDQyNC4yNSBaIE00MjkuMDYyNSw0MjQuOTM3NSBRNDI5LjA2MjUsNDI0LjkzNzUgNDI5LjA2MjUsNDE1Ljc1IEw0MjcuMzEyNSw0MTUuNzUgUTQyNy4zMTI1LDQxNS43NSA0MjcuMzEyNSw0MjQuOTM3NSBMNDI5LjA2MjUsNDI0LjkzNzUgWiBNNDMyLjYyNSw0MjQuOTM3NSBMNDM0LjM3NSw0MjQuOTM3NSBRNDM0LjM3NSw0MjQuOTM3NSA0MzQuMzc1LDQyMi4xMjUgTDQzMi42MjUsNDIyLjEyNSBRNDMyLjYyNSw0MjIuMTI1IDQzMi42MjUsNDI0LjkzNzUgWiBNNDMyLjYyNSw0MTUuNzUgUTQzMi42MjUsNDE1Ljc1IDQzMi42MjUsNDE4LjU2MjUgTDQzNC4zNzUsNDE4LjU2MjUgUTQzNC4zNzUsNDE4LjU2MjUgNDM0LjM3NSw0MTUuNzUgTDQzMi42MjUsNDE1Ljc1IFogTTQyOC4zNzUsNDE2LjQzNzUgTDQzMy4zMTI1LDQxNi40Mzc1IEw0MzMuMzEyNSw0MTQuNjg3NSBMNDI4LjM3NSw0MTQuNjg3NSBMNDI4LjM3NSw0MTYuNDM3NSBaICIgZmlsbD0iIzAwMDAwMCIvPjx0ZXh0IGZpbGw9IiMwMDAwMDAiIGZvbnQtZmFtaWx5PSJzYW5zLXNlcmlmIiBmb250LXNpemU9IjE0IiBsZW5ndGhBZGp1c3Q9InNwYWNpbmciIHRleHRMZW5ndGg9Ijc3IiB4PSI0NTEuMjUiIHk9IjQyNS43NDIyIj5UaHVUaHVBZG1pbjwvdGV4dD48bGluZSBzdHlsZT0ic3Ryb2tlOiMxODE4MTg7c3Ryb2tlLXdpZHRoOjAuNTsiIHgxPSIyODYuNSIgeDI9IjY2MC41IiB5MT0iNDM2IiB5Mj0iNDM2Ii8+PGxpbmUgc3R5bGU9InN0cm9rZTojMTgxODE4O3N0cm9rZS13aWR0aDowLjU7IiB4MT0iMjg2LjUiIHgyPSI2NjAuNSIgeTE9IjQ0NCIgeTI9IjQ0NCIvPjxlbGxpcHNlIGN4PSIyOTYuNSIgY3k9IjQ1Ni45OTIyIiBmaWxsPSIjODRCRTg0IiByeD0iMyIgcnk9IjMiIHN0eWxlPSJzdHJva2U6IzAzODA0ODtzdHJva2Utd2lkdGg6MTsiLz48dGV4dCBmaWxsPSIjMDAwMDAwIiBmb250LWZhbWlseT0ic2Fucy1zZXJpZiIgZm9udC1zaXplPSIxNCIgbGVuZ3RoQWRqdXN0PSJzcGFjaW5nIiB0ZXh0TGVuZ3RoPSIyNDUiIHg9IjMwNS41IiB5PSI0NjEuMjM0NCI+eGFjTmhhbk11b24ocGhpZXU6IFBoaWV1TXVvbik6IHZvaWQ8L3RleHQ+PGVsbGlwc2UgY3g9IjI5Ni41IiBjeT0iNDcxLjk3NjYiIGZpbGw9IiM4NEJFODQiIHJ4PSIzIiByeT0iMyIgc3R5bGU9InN0cm9rZTojMDM4MDQ4O3N0cm9rZS13aWR0aDoxOyIvPjx0ZXh0IGZpbGw9IiMwMDAwMDAiIGZvbnQtZmFtaWx5PSJzYW5zLXNlcmlmIiBmb250LXNpemU9IjE0IiBsZW5ndGhBZGp1c3Q9InNwYWNpbmciIHRleHRMZW5ndGg9IjIzOCIgeD0iMzA1LjUiIHk9IjQ3Ni4yMTg4Ij54YWNOaGFuVHJhKHBoaWV1OiBQaGlldU11b24pOiB2b2lkPC90ZXh0PjxlbGxpcHNlIGN4PSIyOTYuNSIgY3k9IjQ4Ni45NjA5IiBmaWxsPSIjODRCRTg0IiByeD0iMyIgcnk9IjMiIHN0eWxlPSJzdHJva2U6IzAzODA0ODtzdHJva2Utd2lkdGg6MTsiLz48dGV4dCBmaWxsPSIjMDAwMDAwIiBmb250LWZhbWlseT0ic2Fucy1zZXJpZiIgZm9udC1zaXplPSIxNCIgbGVuZ3RoQWRqdXN0PSJzcGFjaW5nIiB0ZXh0TGVuZ3RoPSIyMzgiIHg9IjMwNS41IiB5PSI0OTEuMjAzMSI+dGFvVGFpS2hvYW5Nb2kodGs6IFRhaUtob2FuKTogdm9pZDwvdGV4dD48ZWxsaXBzZSBjeD0iMjk2LjUiIGN5PSI1MDEuOTQ1MyIgZmlsbD0iIzg0QkU4NCIgcng9IjMiIHJ5PSIzIiBzdHlsZT0ic3Ryb2tlOiMwMzgwNDg7c3Ryb2tlLXdpZHRoOjE7Ii8+PHRleHQgZmlsbD0iIzAwMDAwMCIgZm9udC1mYW1pbHk9InNhbnMtc2VyaWYiIGZvbnQtc2l6ZT0iMTQiIGxlbmd0aEFkanVzdD0ic3BhY2luZyIgdGV4dExlbmd0aD0iMjY2IiB4PSIzMDUuNSIgeT0iNTA2LjE4NzUiPmtob2FUYWlLaG9hbihtYVRhaUtob2FuOiBTdHJpbmcpOiB2b2lkPC90ZXh0PjxlbGxpcHNlIGN4PSIyOTYuNSIgY3k9IjUxNi45Mjk3IiBmaWxsPSIjODRCRTg0IiByeD0iMyIgcnk9IjMiIHN0eWxlPSJzdHJva2U6IzAzODA0ODtzdHJva2Utd2lkdGg6MTsiLz48dGV4dCBmaWxsPSIjMDAwMDAwIiBmb250LWZhbWlseT0ic2Fucy1zZXJpZiIgZm9udC1zaXplPSIxNCIgbGVuZ3RoQWRqdXN0PSJzcGFjaW5nIiB0ZXh0TGVuZ3RoPSIzNTAiIHg9IjMwNS41IiB5PSI1MjEuMTcxOSI+Y2FwUXV5ZW4obWFUYWlLaG9hbjogU3RyaW5nLCB2YWlUcm86IFZhaVRybyk6IHZvaWQ8L3RleHQ+PC9nPjwhLS1jbGFzcyBRdWFuTHlUYWlLaG9hbi0tPjxnIGNsYXNzPSJlbnRpdHkiIGRhdGEtZW50aXR5PSJRdWFuTHlUYWlLaG9hbiIgZGF0YS1zb3VyY2UtbGluZT0iMzEiIGRhdGEtdWlkPSJlbnQwMDA3IiBpZD0iZW50aXR5X1F1YW5MeVRhaUtob2FuIj48cmVjdCBmaWxsPSIjRjFGMUYxIiBoZWlnaHQ9IjkyLjk1MzEiIHJ4PSIyLjUiIHJ5PSIyLjUiIHN0eWxlPSJzdHJva2U6IzE4MTgxODtzdHJva2Utd2lkdGg6MC41OyIgd2lkdGg9IjI4NSIgeD0iMTU4IiB5PSI3Ii8+PGVsbGlwc2UgY3g9IjI0Ny4yNSIgY3k9IjIzIiBmaWxsPSIjQUREMUIyIiByeD0iMTEiIHJ5PSIxMSIgc3R5bGU9InN0cm9rZTojMTgxODE4O3N0cm9rZS13aWR0aDoxOyIvPjxwYXRoIGQ9Ik0yNDQuODc1LDI3LjI1IEwyNDQuODc1LDI5IEwyNDkuODEyNSwyOSBMMjQ5LjgxMjUsMjcuMjUgTDI0NC44NzUsMjcuMjUgWiBNMjQ1LjU2MjUsMjcuOTM3NSBRMjQ1LjU2MjUsMjcuOTM3NSAyNDUuNTYyNSwxOC43NSBMMjQzLjgxMjUsMTguNzUgUTI0My44MTI1LDE4Ljc1IDI0My44MTI1LDI3LjkzNzUgTDI0NS41NjI1LDI3LjkzNzUgWiBNMjQ5LjEyNSwyNy45Mzc1IEwyNTAuODc1LDI3LjkzNzUgUTI1MC44NzUsMjcuOTM3NSAyNTAuODc1LDI1LjEyNSBMMjQ5LjEyNSwyNS4xMjUgUTI0OS4xMjUsMjUuMTI1IDI0OS4xMjUsMjcuOTM3NSBaIE0yNDkuMTI1LDE4Ljc1IFEyNDkuMTI1LDE4Ljc1IDI0OS4xMjUsMjEuNTYyNSBMMjUwLjg3NSwyMS41NjI1IFEyNTAuODc1LDIxLjU2MjUgMjUwLjg3NSwxOC43NSBMMjQ5LjEyNSwxOC43NSBaIE0yNDQuODc1LDE5LjQzNzUgTDI0OS44MTI1LDE5LjQzNzUgTDI0OS44MTI1LDE3LjY4NzUgTDI0NC44NzUsMTcuNjg3NSBMMjQ0Ljg3NSwxOS40Mzc1IFogIiBmaWxsPSIjMDAwMDAwIi8+PHRleHQgZmlsbD0iIzAwMDAwMCIgZm9udC1mYW1pbHk9InNhbnMtc2VyaWYiIGZvbnQtc2l6ZT0iMTQiIGxlbmd0aEFkanVzdD0ic3BhY2luZyIgdGV4dExlbmd0aD0iOTgiIHg9IjI2Ny43NSIgeT0iMjguNzQyMiI+UXVhbkx5VGFpS2hvYW48L3RleHQ+PGxpbmUgc3R5bGU9InN0cm9rZTojMTgxODE4O3N0cm9rZS13aWR0aDowLjU7IiB4MT0iMTU5IiB4Mj0iNDQyIiB5MT0iMzkiIHkyPSIzOSIvPjxsaW5lIHN0eWxlPSJzdHJva2U6IzE4MTgxODtzdHJva2Utd2lkdGg6MC41OyIgeDE9IjE1OSIgeDI9IjQ0MiIgeTE9IjQ3IiB5Mj0iNDciLz48ZWxsaXBzZSBjeD0iMTY5IiBjeT0iNTkuOTkyMiIgZmlsbD0iIzg0QkU4NCIgcng9IjMiIHJ5PSIzIiBzdHlsZT0ic3Ryb2tlOiMwMzgwNDg7c3Ryb2tlLXdpZHRoOjE7Ii8+PHRleHQgZmlsbD0iIzAwMDAwMCIgZm9udC1mYW1pbHk9InNhbnMtc2VyaWYiIGZvbnQtc2l6ZT0iMTQiIGxlbmd0aEFkanVzdD0ic3BhY2luZyIgdGV4dExlbmd0aD0iMTgyIiB4PSIxNzgiIHk9IjY0LjIzNDQiPmRhbmdLeSh0azogVGFpS2hvYW4pOiB2b2lkPC90ZXh0PjxlbGxpcHNlIGN4PSIxNjkiIGN5PSI3NC45NzY2IiBmaWxsPSIjODRCRTg0IiByeD0iMyIgcnk9IjMiIHN0eWxlPSJzdHJva2U6IzAzODA0ODtzdHJva2Utd2lkdGg6MTsiLz48dGV4dCBmaWxsPSIjMDAwMDAwIiBmb250LWZhbWlseT0ic2Fucy1zZXJpZiIgZm9udC1zaXplPSIxNCIgbGVuZ3RoQWRqdXN0PSJzcGFjaW5nIiB0ZXh0TGVuZ3RoPSIyNTIiIHg9IjE3OCIgeT0iNzkuMjE4OCI+dGltVGFpS2hvYW4oZW1haWw6IFN0cmluZyk6IFRhaUtob2FuPC90ZXh0PjxlbGxpcHNlIGN4PSIxNjkiIGN5PSI4OS45NjA5IiBmaWxsPSIjODRCRTg0IiByeD0iMyIgcnk9IjMiIHN0eWxlPSJzdHJva2U6IzAzODA0ODtzdHJva2Utd2lkdGg6MTsiLz48dGV4dCBmaWxsPSIjMDAwMDAwIiBmb250LWZhbWlseT0ic2Fucy1zZXJpZiIgZm9udC1zaXplPSIxNCIgbGVuZ3RoQWRqdXN0PSJzcGFjaW5nIiB0ZXh0TGVuZ3RoPSIyNTkiIHg9IjE3OCIgeT0iOTQuMjAzMSI+eG9hVGFpS2hvYW4obWFUYWlLaG9hbjogU3RyaW5nKTogdm9pZDwvdGV4dD48L2c+PCEtLWNsYXNzIFZhaVRyby0tPjxnIGNsYXNzPSJlbnRpdHkiIGRhdGEtZW50aXR5PSJWYWlUcm8iIGRhdGEtc291cmNlLWxpbmU9IjM3IiBkYXRhLXVpZD0iZW50MDAwOCIgaWQ9ImVudGl0eV9WYWlUcm8iPjxyZWN0IGZpbGw9IiNGMUYxRjEiIGhlaWdodD0iNzcuOTY4OCIgcng9IjIuNSIgcnk9IjIuNSIgc3R5bGU9InN0cm9rZTojMTgxODE4O3N0cm9rZS13aWR0aDowLjU7IiB3aWR0aD0iODkiIHg9IjQ3OCIgeT0iMTQuNSIvPjxlbGxpcHNlIGN4PSI0OTkuNzUiIGN5PSIzMC41IiBmaWxsPSIjRUI5MzdGIiByeD0iMTEiIHJ5PSIxMSIgc3R5bGU9InN0cm9rZTojMTgxODE4O3N0cm9rZS13aWR0aDoxOyIvPjxwYXRoIGQ9Ik01MDMuMzc1LDM2LjUgTDUwMy4zNzUsMzQuNzUgTDQ5OC4wNjI1LDM0Ljc1IFE0OTguMDYyNSwzNC43NSA0OTguMDYyNSwzMS4xODc1IEw1MDIuMzEyNSwzMS4xODc1IEw1MDIuMzEyNSwyOS40Mzc1IEw0OTguMDYyNSwyOS40Mzc1IEw0OTguMDYyNSwyNi45Mzc1IEw1MDMuMzc1LDI2LjkzNzUgTDUwMy4zNzUsMjUuMTg3NSBMNDk2LjMxMjUsMjUuMTg3NSBRNDk2LjMxMjUsMjUuMTg3NSA0OTYuMzEyNSwzNi41IEw1MDMuMzc1LDM2LjUgWiAiIGZpbGw9IiMwMDAwMDAiLz48dGV4dCBmaWxsPSIjMDAwMDAwIiBmb250LWZhbWlseT0ic2Fucy1zZXJpZiIgZm9udC1zaXplPSIxNCIgbGVuZ3RoQWRqdXN0PSJzcGFjaW5nIiB0ZXh0TGVuZ3RoPSI0MiIgeD0iNTE1LjI1IiB5PSIzNi4yNDIyIj5WYWlUcm88L3RleHQ+PGxpbmUgc3R5bGU9InN0cm9rZTojMTgxODE4O3N0cm9rZS13aWR0aDowLjU7IiB4MT0iNDc5IiB4Mj0iNTY2IiB5MT0iNDYuNSIgeTI9IjQ2LjUiLz48dGV4dCBmaWxsPSIjMDAwMDAwIiBmb250LWZhbWlseT0ic2Fucy1zZXJpZiIgZm9udC1zaXplPSIxNCIgbGVuZ3RoQWRqdXN0PSJzcGFjaW5nIiB0ZXh0TGVuZ3RoPSI1NiIgeD0iNDg0IiB5PSI2My43MzQ0Ij5OZ3VvaURvYzwvdGV4dD48dGV4dCBmaWxsPSIjMDAwMDAwIiBmb250LWZhbWlseT0ic2Fucy1zZXJpZiIgZm9udC1zaXplPSIxNCIgbGVuZ3RoQWRqdXN0PSJzcGFjaW5nIiB0ZXh0TGVuZ3RoPSI3NyIgeD0iNDg0IiB5PSI3OC43MTg4Ij5UaHVUaHVBZG1pbjwvdGV4dD48bGluZSBzdHlsZT0ic3Ryb2tlOiMxODE4MTg7c3Ryb2tlLXdpZHRoOjAuNTsiIHgxPSI0NzkiIHgyPSI1NjYiIHkxPSI4NC40Njg4IiB5Mj0iODQuNDY4OCIvPjwvZz48IS0tcmV2ZXJzZSBsaW5rIFRhaUtob2FuIHRvIE5ndW9pRG9jLS0+PGcgY2xhc3M9ImxpbmsiIGRhdGEtZW50aXR5LTE9IlRhaUtob2FuIiBkYXRhLWVudGl0eS0yPSJOZ3VvaURvYyIgZGF0YS1zb3VyY2UtbGluZT0iMTgiIGRhdGEtdWlkPSJsbms0IiBpZD0ibGlua19UYWlLaG9hbl9OZ3VvaURvYyI+PHBhdGggZD0iTTIxOC45NTM0LDM1Ni45NTUgQzE5Ny4xOTM0LDM4Mi44MjUgMTg1LjU5LDM5Ni42MiAxNjYuODMsNDE4LjkyIiBmaWxsPSJub25lIiBpZD0iVGFpS2hvYW4tYmFja3RvLU5ndW9pRG9jIiBzdHlsZT0ic3Ryb2tlOiMxODE4MTg7c3Ryb2tlLXdpZHRoOjE7Ii8+PHBvbHlnb24gZmlsbD0ibm9uZSIgcG9pbnRzPSIyMzAuNTQsMzQzLjE4LDIxNC4zNjE4LDM1My4wOTI4LDIyMy41NDUxLDM2MC44MTcyLDIzMC41NCwzNDMuMTgiIHN0eWxlPSJzdHJva2U6IzE4MTgxODtzdHJva2Utd2lkdGg6MTsiLz48L2c+PCEtLXJldmVyc2UgbGluayBUYWlLaG9hbiB0byBUaHVUaHVBZG1pbi0tPjxnIGNsYXNzPSJsaW5rIiBkYXRhLWVudGl0eS0xPSJUYWlLaG9hbiIgZGF0YS1lbnRpdHktMj0iVGh1VGh1QWRtaW4iIGRhdGEtc291cmNlLWxpbmU9IjI0IiBkYXRhLXVpZD0ibG5rNiIgaWQ9ImxpbmtfVGFpS2hvYW5fVGh1VGh1QWRtaW4iPjxwYXRoIGQ9Ik0zODIuNDk2NywzNTYuOTIxMiBDMzk5LjcwNjcsMzc3LjI2MTIgNDA2LjE3LDM4NC45MiA0MjIuMyw0MDMuOTciIGZpbGw9Im5vbmUiIGlkPSJUYWlLaG9hbi1iYWNrdG8tVGh1VGh1QWRtaW4iIHN0eWxlPSJzdHJva2U6IzE4MTgxODtzdHJva2Utd2lkdGg6MTsiLz48cG9seWdvbiBmaWxsPSJub25lIiBwb2ludHM9IjM3MC44NywzNDMuMTgsMzc3LjkxNjMsMzYwLjc5NjgsMzg3LjA3NzEsMzUzLjA0NTcsMzcwLjg3LDM0My4xOCIgc3R5bGU9InN0cm9rZTojMTgxODE4O3N0cm9rZS13aWR0aDoxOyIvPjwvZz48IS0tbGluayBRdWFuTHlUYWlLaG9hbiB0byBUYWlLaG9hbi0tPjxnIGNsYXNzPSJsaW5rIiBkYXRhLWVudGl0eS0xPSJRdWFuTHlUYWlLaG9hbiIgZGF0YS1lbnRpdHktMj0iVGFpS2hvYW4iIGRhdGEtc291cmNlLWxpbmU9IjQ2IiBkYXRhLXVpZD0ibG5rOSIgaWQ9ImxpbmtfUXVhbkx5VGFpS2hvYW5fVGFpS2hvYW4iPjxwYXRoIGNvZGVMaW5lPSI0NiIgZD0iTTMwMC41LDEwMC4xNyBDMzAwLjUsMTIyLjIgMzAwLjUsMTQzLjMzIDMwMC41LDE2OC44NSIgZmlsbD0ibm9uZSIgaWQ9IlF1YW5MeVRhaUtob2FuLXRvLVRhaUtob2FuIiBzdHlsZT0ic3Ryb2tlOiMxODE4MTg7c3Ryb2tlLXdpZHRoOjE7Ii8+PHBvbHlnb24gZmlsbD0iIzE4MTgxOCIgcG9pbnRzPSIzMDAuNSwxNzQuODUsMzA0LjUsMTY1Ljg1LDMwMC41LDE2OS44NSwyOTYuNSwxNjUuODUsMzAwLjUsMTc0Ljg1IiBzdHlsZT0ic3Ryb2tlOiMxODE4MTg7c3Ryb2tlLXdpZHRoOjE7Ii8+PHBvbHlnb24gZmlsbD0iIzAwMDAwMCIgcG9pbnRzPSIzMDUuNSwxNDIuOTU3LDMwOC40Mzg5LDEzMy45MTE5LDMwMi41NjExLDEzMy45MTE5LDMwNS41LDE0Mi45NTciIHN0eWxlPSJzdHJva2U6IzAwMDAwMDtzdHJva2Utd2lkdGg6MTsiLz48dGV4dCBmaWxsPSIjMDAwMDAwIiBmb250LWZhbWlseT0ic2Fucy1zZXJpZiIgZm9udC1zaXplPSIxMyIgbGVuZ3RoQWRqdXN0PSJzcGFjaW5nIiB0ZXh0TGVuZ3RoPSI0NS41IiB4PSIzMTQuNSIgeT0iMTQzLjI4OTEiPnF1JiM3ODQzO24gbCYjMjUzOzwvdGV4dD48L2c+PCEtLVNSQz1bWkxEMVJlQ200QnBwWWhyMWJGMDFmNFFnc2FFYkQ1NlplQWhOWlI2bTVSMGZzNTZZZ2tTLWVnVWd2dHdXS0t6dklOdklHbTgxS2IwSENjV3lrdnhQTlRqTjdPemJteXQtV3ExcXNCcWRHRFotSXAzQnhjSFJrQ25LWWFHMVlKM0JtNFMtT0g4NWw1VzBCaUhPMFh1aUxDZjVNQzFDLWhJOXExWHZyNDFZTDFFNmtlNmphVmtmekUybi1FUUdRdk9YMTJaMjZTRjRRUUdQak5DQ0Y1WEE2TDRLTFRJSkhrS09WMnJ2UzBHYmRud1pkNUZxTEY5UVdlQnVRYmI3a3hER0l0dWgyVDJEZVk5ZS1IejJoQUxPODY1RVBYUUpuUW1jbm1GWkw0X0RMaTRudklpZUlPeE1Ea2tnR2V2dEEzZWZiSHdWUVZEVTFwNE5OUDhzSTRvZkgxeFVVLUk5dndWT0lyQ2VvbURDZUhvcnlnZTN3eElMMEtoU2tQb0FFZkxXQ2pUUi1YVGpyOWcwMl96cFpVOS1zdEFTenRjb3hQSWNVNW1mUXlwRnVDbV9Ma0hWNWVtTUFkSHlLYlg4QUFWNF9ET1FiM0ZqZGNrT1VtNXNzQnRyTlItTU9UU1RkX2xqbVJDLVY3eUFZRk9fQ0Z1NV0tLT48L2c+PC9zdmc+;" vertex="1" parent="1">
            <mxGeometry x="140" y="2790" width="668" height="533" as="geometry" />
          </mxCell>
        </UserObject>
        <mxCell id="bdeqUx--kDpb1p-4bheV-120" value="&lt;span style=&quot;font-family: Arial, sans-serif; text-align: start; white-space-collapse: preserve;&quot;&gt;&lt;font style=&quot;color: rgb(0, 0, 51); font-size: 16px;&quot;&gt;&lt;b style=&quot;&quot;&gt;Account Management Module&lt;/b&gt;&lt;/font&gt;&lt;/span&gt;" style="text;html=1;align=center;verticalAlign=middle;resizable=0;points=[];autosize=1;strokeColor=none;fillColor=none;" vertex="1" parent="1">
          <mxGeometry x="50" y="2740" width="250" height="30" as="geometry" />
        </mxCell>
      </root>
    </mxGraphModel>
  </diagram>
</mxfile>
